<svg xmlns="http://www.w3.org/2000/svg" width="201" height="196" style="shape-rendering:geometricPrecision;text-rendering:geometricPrecision;image-rendering:optimizeQuality;fill-rule:evenodd;clip-rule:evenodd"><path fill="#d5aaa1" d="m125 8-10 3c3-2 6-3 10-3Z" style="opacity:1"/><path fill="#bb7062" d="M185 9a495 495 0 0 1 0 0Z" style="opacity:1"/><path fill="#c98e82" d="m115 11-9 3c2-2 5-3 9-3Z" style="opacity:1"/><path fill="#a0422f" d="M167 5h3c5-1 10 1 15 4l-1 1a495 495 0 0 0 10 8c-1 2 0 4 2 7l1 10-19-18 7-4c-3 0-6 1-8 3-5-4-8-7-10-11Z" style="opacity:1"/><path fill="#d0a097" d="m106 14-7 3c1-2 4-3 7-3Z" style="opacity:1"/><path fill="#d3ada8" d="M192 15c1 0 2 1 2 3-2-1-3-2-2-3Z" style="opacity:1"/><path fill="#a03f2c" d="m130 46-6-7 6-6c-8-1-16-2-23-1-14 4-26 11-36 20-11 10-21 20-28 32l-5-4c1-3 2-6 1-8l6-10 18-18c14-13 31-22 50-27-2 1-4 3-4 5s1 3 4 4c9 2 17 0 24-5 1-3 0-4-1-6-5-1-10-2-15-1 7-3 14-5 23-5l14 17-28 20Z" style="opacity:1"/><path fill="#cb9f9a" d="m194 18 2 7c-2-3-3-5-2-7Z" style="opacity:1"/><path fill="#d5aba3" d="m77 28-3 2c0-2 1-3 3-2Z" style="opacity:1"/><path fill="#cea09b" d="m74 30-3 2c0-2 1-3 3-2Z" style="opacity:1"/><path fill="#9f3f2b" d="m129 134-14-15c13-13 23-28 31-44 3-8 3-15 1-22-1-2-2-3-3-2l-4 5-7-7c8-8 17-15 27-21l23 23c-12 32-30 59-54 83Z" style="opacity:1"/><path fill="#ce9f96" d="m71 32-4 3c0-2 2-3 4-3Z" style="opacity:1"/><path fill="#c5867e" d="m67 35-6 5c1-3 3-5 6-5Z" style="opacity:1"/><path fill="#a24432" d="M170 5h-6l10 12-13 8-18-19c-34 6-64 21-89 45a2501 2501 0 0 0-15 21c1 2 0 5-1 8l5 4-8 14c-3 1-4 3-5 6l-2-3c1-4 1-6-2-7l-10 24c-2 7-3 15-3 23l-2-2 2-16c-1-2 0-3 1-4l2-8v-1c2-3 3-5 3-8-1-1 0-2 1-2l2-6c1-5 3-10 6-13l2-3c0-2 0-3 2-4l2-3c3-8 8-14 15-19l12-12 6-5 4-3 3-2 3-2c6-5 14-9 22-11l7-3 9-3 10-3c14-4 29-5 45-3Z" style="opacity:1"/><path fill="#e2d1b9" d="M110 50a229 229 0 0 0 23 23c0 5-3 8-8 8l-5-6a255 255 0 0 0-24-23c-1-7 1-10 8-9l6 7Z" style="opacity:1"/><path fill="#983623" d="M197 37v20c-5-2-9-5-10-9l4-15 6 4Z" style="opacity:1"/><path fill="#c89088" d="M61 40 49 52c3-5 7-9 12-12Z" style="opacity:1"/><path fill="#c5938c" d="m196 25 1 3c3 17 1 34-3 51l2-19 1-3V35l-1-10Z" style="opacity:1"/><path fill="#b09684" d="M93 59c-5-5-9-4-11 2l2 4c-3-1-4-2-3-5 1-5 4-7 9-6l3 5Z" style="opacity:1"/><path fill="#e2d1b8" d="m124 39 6 7 3 3 7 7 3 3c2 5 0 8-5 9l-5-5a44455 44455 0 0 1-22-22c-1-7 2-9 9-7l4 5Z" style="opacity:1"/><path fill="#9a3c2a" d="m116 45 17 18-5 5-18-18c1-3 3-5 6-5Z" style="opacity:1"/><path fill="#9d3d2a" d="m196 60-2 19c-2 2-3 5-2 8l-1 3-4 3 1 6c-2 1-3 4-3 7l-1 2c-2 1-2 2-2 4-6 13-14 24-23 35l-4-2c-2 2-3 5-4 9h-4l-6-6c-23 18-49 29-77 33A220 220 0 0 0 185 52l11 8Z" style="opacity:1"/><path fill="#9c3d2a" d="m101 56 19 19c-2 1-4 3-5 6L96 62c0-3 2-5 5-6Z" style="opacity:1"/><path fill="#ac9d8c" d="M143 59c3 3 3 6 0 9h-5c5-1 7-4 5-9Z" style="opacity:1"/><path fill="#d6aca4" d="m34 71-2 3c-1-2 0-3 2-3Z" style="opacity:1"/><path fill="#d2a39e" d="m30 78-2 3c-1-2 0-3 2-3Z" style="opacity:1"/><path fill="#e3d2ba" d="m93 59 3 3a255 255 0 0 0 23 23c2 6-1 9-7 9l-5-5a86910 86910 0 0 1-25-28c2-6 6-7 11-2Z" style="opacity:1"/><path fill="#a68f7e" d="M133 73c2 7-1 10-8 8 5 0 8-3 8-8Z" style="opacity:1"/><path fill="#e2d1b9" d="M81 74a283 283 0 0 0 24 24c3 7 0 10-8 9-1-3-3-4-5-5a134 134 0 0 0-25-25c-2-8 1-11 9-10l5 7Z" style="opacity:1"/><path fill="#c34d39" d="m115 119-2 1-9-10c3-3 4-6 3-10l-2-2-4-4c1-3 3-5 6-5l5 5c1 1 3 2 6 1 4-3 5-7 1-10l-4-4c1-3 3-5 5-6l5 6c7 2 10-1 8-8l-5-5 5-5 5 5h5c3-3 3-6 0-9l-3-3 4-5c1-1 2 0 3 2 2 7 2 14-1 22-8 16-18 31-31 44Z" style="opacity:1"/><path fill="#d6b6b0" d="m194 79-2 8c-1-3 0-6 2-8Z" style="opacity:1"/><path fill="#9c3d2a" d="m86 67 21 22c-3 0-5 2-6 5L81 74c1-2 2-4 4-4l1-3Z" style="opacity:1"/><path fill="#e2d1b9" d="M68 88c5 7 11 13 19 20l6 6c-1 7-4 9-10 6l-3-4a283 283 0 0 0-26-26c-1-5 1-8 6-9 3 1 5 4 8 7Z" style="opacity:1"/><path fill="#a99280" d="M119 85c4 3 3 7-1 10-3 1-5 0-6-1 6 0 9-3 7-9Z" style="opacity:1"/><path fill="#b36a5c" d="m191 90-3 9-1-6 4-3Z" style="opacity:1"/><path fill="#9f3e2b" d="M35 98c-3 9-4 19-3 30l2 5 6-9 7 8c-8 8-14 16-19 26l-15-17a111 111 0 0 1 13-47c3 1 3 3 2 7l2 3c1-3 2-5 5-6Z" style="opacity:1"/><path fill="#c34d39" d="m124 39-4-5c-7-2-10 0-9 7l5 4c-3 0-5 2-6 5l-6-7c-7-1-9 2-8 9 2 0 3 2 5 4-3 1-5 3-5 6l-3-3-3-5c-5-1-8 1-9 6-1 3 0 4 3 5l2 2-1 3c-2 0-3 2-4 4l-5-7c-8-1-11 2-9 10l6 5c-3 1-5 3-5 6-3-3-5-6-8-7-5 1-7 4-6 9l6 6c-2 1-4 3-4 6l-5-6c-3-1-5 0-7 2v8c2 0 3 2 5 4-2 1-4 3-4 6-2-2-4-4-4-6-2-1-4-1-5 1-3 5-2 9 4 13l-6 9-2-5c-1-11 0-21 3-30l8-14c7-12 17-22 28-32 10-9 22-16 36-20 7-1 15 0 23 1l-6 6Z" style="opacity:1"/><path fill="#9a3e2c" d="M73 82c7 6 13 12 19 20l-5 6c-8-7-14-13-19-20 0-3 2-5 5-6Z" style="opacity:1"/><path fill="#c98a81" d="m22 94-2 6c-1-3 0-5 2-6Z" style="opacity:1"/><path fill="#9b3e2c" d="m60 96 20 20-6 5-18-19c0-3 2-5 4-6Z" style="opacity:1"/><path fill="#cca39c" d="m188 99-3 7c0-3 1-6 3-7Z" style="opacity:1"/><path fill="#c88b84" d="M19 102c0 3-1 5-3 8 0-3 1-6 3-8Z" style="opacity:1"/><path fill="#a79584" d="m105 98 2 2c1 4 0 7-3 10-3 0-6-1-7-3 8 1 11-2 8-9Z" style="opacity:1"/><path fill="#c34c39" d="M92 102c2 1 4 2 5 5 1 2 4 3 7 3l9 10c-13 13-28 24-45 31-7 1-13 0-18-1 1-4 3-7 6-9l5 5c5 1 8-2 7-7l-5-4c0-3 2-5 4-6l4 4c3 3 6 3 9 0v-6l-6-6 6-5 3 4 2 2c5 2 8 0 10-5l-2-3-6-6 5-6Z" style="opacity:1"/><path fill="#c5a29b" d="m184 108-2 4c0-2 0-3 2-4Z" style="opacity:1"/><path fill="#d29e95" d="m16 111-2 8c-1-3 0-6 2-8Z" style="opacity:1"/><path fill="#e2d1b8" d="m56 102 18 19 6 6c0 6-3 8-9 6l-4-4-18-19c-2-2-3-4-5-4v-8c2-2 4-3 7-2l5 6Z" style="opacity:1"/><path fill="#a3907f" d="m93 114 2 3c-2 5-5 7-10 5l-2-2c6 3 9 1 10-6Z" style="opacity:1"/><path fill="#a03f2c" d="m115 119 14 15c-22 21-46 37-74 48l-4-2c-8-6-15-13-21-21 5-9 12-17 19-25l7 7c-3 2-5 5-6 9 5 1 11 2 18 1 17-7 32-18 45-31l2-1Z" style="opacity:1"/><path fill="#e1d0b7" d="M45 116a58360 58360 0 0 1 23 23c1 5-2 8-7 7l-5-5-7-7-2-2-7-8c-6-4-7-8-4-13 1-2 3-2 5-1 0 2 2 4 4 6Z" style="opacity:1"/><path fill="#9d3d2b" d="m49 110 18 19c-2 1-4 3-4 6l-18-19c0-3 2-5 4-6Z" style="opacity:1"/><path fill="#bd8279" d="m13 123-2 16-1 2c0-7 1-13 3-18Z" style="opacity:1"/><path fill="#a79281" d="M80 127v6c-3 3-6 3-9 0 6 2 9 0 9-6Z" style="opacity:1"/><path fill="#b46a5a" d="m159 147-12 11v-4h4c1-4 2-7 4-9l4 2Z" style="opacity:1"/><path fill="#993b28" d="M147 154v4l-3 3c-2-1-3 0-3 2l-1 1c-2 0-4 1-4 3l-10 6c-3 0-4 1-5 3-18 9-37 14-57 17l-8-9c2-2 5-3 8-3 28-4 54-15 77-33l6 6Z" style="opacity:1"/><path fill="#9f3e2a" d="M11 162v-20l16 18-7 12-9-10Z" style="opacity:1"/><path fill="#ddc3be" d="m144 161-3 2c0-2 1-3 3-2Z" style="opacity:1"/><path fill="#ddc3bf" d="m140 164-4 3c0-2 2-3 4-3Z" style="opacity:1"/><path fill="#bf8479" d="M10 143c-1 6 0 12 1 18v5l2 9c1-3 1-3 2 0v9c-6-14-8-27-5-41Z" style="opacity:1"/><path fill="#d6b4ae" d="m126 173-5 3c1-2 2-3 5-3Z" style="opacity:1"/><path fill="#752e21" d="M167 5c2 4 5 7 10 11 2-2 5-3 8-3l-7 4 19 18v2l-6-4-4 15c1 4 5 7 10 9l-1 3-11-8-8 19A220 220 0 0 1 56 184l8 9h-2c-3-4-7-6-10-8l-14 4 3 3h-2l-28-26v-4l9 10 7-12-16-18v19c-1-6-2-12-1-18v-2l1-2 2 2 15 17c5-10 11-18 19-26l2 2c-7 8-14 16-19 25 6 8 13 15 21 21l4 2A222 222 0 0 0 183 52l-23-24c-10 6-19 13-27 21l-3-3 28-20-14-17c-9 0-16 2-23 5-3 0-6 1-8 3a141 141 0 0 0-68 45c2-4 5-8 9-11 25-24 55-39 89-45l18 19 13-8-10-12h3Z" style="opacity:1"/><path fill="#9e3d2a" d="m28 162 22 21c-6 3-11 4-17 2l-11-12c1-4 3-8 6-11Z" style="opacity:1"/><path fill="#9f3e2b" d="M174 19h3l11 12c0 6-1 11-4 17l-21-21 11-8Z" style="opacity:1"/><path fill="#be4a35" d="M121 14c5-1 10 0 15 1 1 2 2 3 1 6-7 5-15 7-24 5-3-1-4-2-4-4s2-4 4-5c2-2 5-3 8-3Z" style="opacity:1"/><path fill="#973926" d="M11 166a1063 1063 0 0 0 27 23l14-4c3 2 7 4 10 8H34c-3-2-6-2-8-2-5-1-9-3-11-7v-9c-1-3-1-3-2 0l-2-9Z" style="opacity:1"/><path fill="#c48a83" d="M26 191c2 0 5 0 8 2l-8-2Z" style="opacity:1"/></svg>
