<svg xmlns="http://www.w3.org/2000/svg" width="201" height="195" style="shape-rendering:geometricPrecision;text-rendering:geometricPrecision;image-rendering:optimizeQuality;fill-rule:evenodd;clip-rule:evenodd"><path fill="#fdda9b" d="M102 7c-2 8-2 16-2 25l-7-3c-1 0-2 1-1 3-1-3-2-6-1-9L90 7c4-2 8-2 12 0Z" style="opacity:1"/><path fill="#f15b27" d="m90 7 1 16-2 5c-14-4-25-1-35 8h-1l-16-8C52 15 69 8 90 7Z" style="opacity:1"/><path fill="#f15a26" d="M153 25c-14 7-26 16-36 28-1 2-3 5-3 8l-2 8-1-2c4-13 1-24-9-33l-1 8-1-6v-4c0-9 0-17 2-25 18 0 35 6 51 18Z" style="opacity:1"/><path fill="#fe5d24" d="M91 23a3617 3617 0 0 1 2 47H80c0-7-1-12-5-17-6-7-14-13-21-17 10-9 21-12 35-8l2-5Z" style="opacity:1"/><path fill="#fcda9b" d="m37 28 16 8-7 4-9-2c-3-2-6-2-8-2l8-8Z" style="opacity:1"/><path fill="#fdf2be" d="M100 32v38h10l-2 7h-8v9l-6 4V77c-5-1-10 0-15 1 0 8-3 15-7 22l-3-1c3-7 4-14 4-21-12 0-22 1-32 5l-6 1-1-1 2-1-2-6c12-3 25-5 39-5 2-9 0-16-6-22l-21-9 7-4h1c7 4 15 10 21 17 4 5 5 10 5 17h13a3617 3617 0 0 0 0-41l7 3Z" style="opacity:1"/><path fill="#f05924" d="M162 33c4 3 8 7 11 13l-7-4-1 2-1-5c-1 2-1 2-2 0l-1 3c7 11 11 23 13 36-18-5-36-8-54-8-2-10 1-18 9-24 10-6 21-11 33-13Z" style="opacity:1"/><path fill="#f25c28" d="M29 36c2 0 5 0 8 2h-1l31 31h-4l1-1-21-21h-3l-4 6c-3 7-4 15-2 23-11 1-21 6-29 13v-2c1-21 9-38 24-51Z" style="opacity:1"/><path fill="#fd5d23" d="M114 61v9h-14V36l1 6 1-8c10 9 13 20 9 33l1 2 2-8Z" style="opacity:1"/><path fill="#fd5e25" d="m37 38 9 2 21 9c6 6 8 13 6 22-14 0-27 2-39 5-2-8-1-16 2-23l4-6h3l21 21-1 1h4a340 340 0 0 0-30-31Z" style="opacity:1"/><path fill="#e94a18" d="M173 46a71 71 0 0 1 16 39l-1 1c-4-4-9-7-14-8-2-13-6-25-13-36l1-3c1 2 1 2 2 0l1 5 1-2 7 4Z" style="opacity:1"/><path fill="#fcd99a" d="m153 25 9 8c-12 2-23 7-33 13-8 6-11 14-9 24 18 0 36 3 54 8 5 1 10 4 14 8l1-1c1 6 2 13 1 21l-1-7c-4-4-8-6-12-8-9-5-17-9-26-11l-31-2c-1 6 1 12 4 18l35 41c4 6 8 13 10 21l2-1-10 11-7-19c-11-20-23-39-36-56-3-5-5-11-4-16h-6l2-7h4v-9c0-3 2-6 3-8 10-12 22-21 36-28Z" style="opacity:1"/><path fill="#fd5e25" d="m69 99-2 2c-9-1-16-3-23-8l-6-7c1-2 3-3 5-3h-2c10-4 20-5 32-5 0 7-1 14-4 21Z" style="opacity:1"/><path fill="#f15924" d="M177 91a1041 1041 0 0 1-14 43l-4 3-35-41c-3-6-5-12-4-18l31 2c9 2 17 6 26 11Z" style="opacity:1"/><path fill="#fdd99a" d="m34 76 2 6-2 1 1 1c-12 4-22 11-31 19v4c-1-7-1-14 1-20v2c8-7 18-12 29-13Z" style="opacity:1"/><path fill="#f05925" d="M41 83h2c-2 0-4 1-5 3l6 7c7 5 14 7 23 8-10 10-19 21-27 33-6 8-11 17-14 27a84 84 0 0 1-22-54v-4c9-8 19-15 31-19l6-1Z" style="opacity:1"/><path fill="#f25a25" d="M94 90a1340 1340 0 0 1-3 87c-19 1-37-4-53-14 3-11 8-21 13-30l21-33c4-7 7-14 7-22 5-1 10-2 15-1v13Z" style="opacity:1"/><path fill="#e94714" d="M177 91c4 2 8 4 12 8l1 7-1 11c-2 2-2 5-2 8-3 12-9 22-16 32l-2 1c-2-8-6-15-10-21l4-3 5-10 9-33Z" style="opacity:1"/><path fill="#fdda9b" d="M100 86a1837 1837 0 0 0 6 107H88h4v-10l2-93 6-4Z" style="opacity:1"/><path fill="#f15a25" d="M108 77h6c-1 5 1 11 4 16 13 17 25 36 36 56-4 1-7 4-9 7a90 90 0 0 1-40 20l-1-7c-2-28-4-56-4-83v-9h8Z" style="opacity:1"/><path fill="#fcda9b" d="m69 99 3 1-21 33a201 201 0 0 0-15 38l-10-10c3-10 8-19 14-27 8-12 17-23 27-33l2-2Z" style="opacity:1"/><path fill="#f6ae9b" d="m189 117-2 8c0-3 0-6 2-8Z" style="opacity:1"/><path fill="#e94815" d="m154 149 7 19a85 85 0 0 1-55 25c-2-8-3-16-2-24l1 7c15-4 28-10 40-20 2-3 5-6 9-7Z" style="opacity:1"/><path fill="#e94715" d="M38 163c16 10 34 15 53 14l1 6v10h-4l-10-1c-2-2-4-3-6-2-14-4-26-10-36-19 0-3 0-6 2-8Z" style="opacity:1"/><path fill="#f48b73" d="M72 190c2-1 4 0 6 2l-6-2Z" style="opacity:1"/></svg>
