<?xml version="1.0" encoding="UTF-8"?>
<!DOCTYPE svg PUBLIC "-//W3C//DTD SVG 1.1//EN" "http://www.w3.org/Graphics/SVG/1.1/DTD/svg11.dtd">
<svg xmlns="http://www.w3.org/2000/svg" version="1.1" width="223px" height="447px" style="shape-rendering:geometricPrecision; text-rendering:geometricPrecision; image-rendering:optimizeQuality; fill-rule:evenodd; clip-rule:evenodd" xmlns:xlink="http://www.w3.org/1999/xlink">
<g><path style="opacity:1" fill="#f63350" d="M 96.5,0.5 C 100.371,0.185029 104.038,0.518362 107.5,1.5C 105.5,1.5 103.5,1.5 101.5,1.5C 102.317,28.9346 103.984,56.2679 106.5,83.5C 103.285,83.9049 100.285,84.9049 97.5,86.5C 96.8519,84.9142 96.3519,83.2475 96,81.5C 94.3811,55.1758 93.3811,28.8425 93,2.5C 94.3024,1.9152 95.469,1.24853 96.5,0.5 Z"/></g>
<g><path style="opacity:1" fill="#f94660" d="M 96.5,0.5 C 95.469,1.24853 94.3024,1.9152 93,2.5C 93.3811,28.8425 94.3811,55.1758 96,81.5C 96.3519,83.2475 96.8519,84.9142 97.5,86.5C 96.609,87.1098 95.609,87.4431 94.5,87.5C 89.74,83.0771 85.74,78.0771 82.5,72.5C 80.847,51.8507 79.6803,31.1841 79,10.5C 80.7073,8.96252 82.2073,7.29585 83.5,5.5C 87.2371,2.47333 91.5705,0.806661 96.5,0.5 Z"/></g>
<g><path style="opacity:1" fill="#f22240" d="M 107.5,1.5 C 110.542,1.73292 113.208,2.73292 115.5,4.5C 114.883,4.61071 114.383,4.94404 114,5.5C 113.333,12.1667 113.333,18.8333 114,25.5C 115.711,41.4572 117.045,57.4572 118,73.5C 117.97,76.3615 118.803,78.6948 120.5,80.5C 120.267,82.0618 119.6,83.3951 118.5,84.5C 114.534,83.8379 110.534,83.5045 106.5,83.5C 103.984,56.2679 102.317,28.9346 101.5,1.5C 103.5,1.5 105.5,1.5 107.5,1.5 Z"/></g>
<g><path style="opacity:1" fill="#fd5d74" d="M 83.5,5.5 C 82.2073,7.29585 80.7073,8.96252 79,10.5C 79.6803,31.1841 80.847,51.8507 82.5,72.5C 74.3291,60.9736 68.9957,48.1403 66.5,34C 67.0595,21.3107 72.7262,11.8107 83.5,5.5 Z"/></g>
<g><path style="opacity:1" fill="#f02136" d="M 115.5,4.5 C 127.092,11.8206 132.758,22.4873 132.5,36.5C 131.908,52.2092 127.908,66.8759 120.5,80.5C 118.803,78.6948 117.97,76.3615 118,73.5C 117.045,57.4572 115.711,41.4572 114,25.5C 113.333,18.8333 113.333,12.1667 114,5.5C 114.383,4.94404 114.883,4.61071 115.5,4.5 Z"/></g>
<g><path style="opacity:1" fill="#fd576f" d="M 197.5,49.5 C 195.473,49.3379 193.473,49.5045 191.5,50C 171.334,56.1077 151.668,63.2743 132.5,71.5C 131.591,73.3747 130.257,74.708 128.5,75.5C 136.728,60.7725 148.395,49.6058 163.5,42C 176.254,38.1893 187.588,40.6893 197.5,49.5 Z"/></g>
<g><path style="opacity:1" fill="#f63551" d="M 203.5,57.5 C 208.289,64.7548 209.289,72.4215 206.5,80.5C 206.666,75.8215 206.499,71.1548 206,66.5C 205.612,65.572 204.945,64.9054 204,64.5C 179.327,73.3913 154.494,81.8913 129.5,90C 128.748,90.6708 128.414,91.5041 128.5,92.5C 126.167,90.8333 124.167,88.8333 122.5,86.5C 122.328,85.5084 122.662,84.8417 123.5,84.5C 125.048,84.1788 125.715,83.1788 125.5,81.5C 148.922,73.9766 172.255,66.1433 195.5,58C 198.146,57.5026 200.813,57.3359 203.5,57.5 Z"/></g>
<g><path style="opacity:1" fill="#f9435e" d="M 197.5,49.5 C 200.471,51.4426 202.471,54.1092 203.5,57.5C 200.813,57.3359 198.146,57.5026 195.5,58C 172.255,66.1433 148.922,73.9766 125.5,81.5C 125.715,83.1788 125.048,84.1788 123.5,84.5C 124.802,81.223 126.469,78.223 128.5,75.5C 130.257,74.708 131.591,73.3747 132.5,71.5C 151.668,63.2743 171.334,56.1077 191.5,50C 193.473,49.5045 195.473,49.3379 197.5,49.5 Z"/></g>
<g><path style="opacity:1" fill="#f01e39" d="M 81.5,87.5 C 81.4142,88.4959 81.7476,89.3292 82.5,90C 58.0991,90.1349 33.7657,88.8016 9.5,86C 8.82881,85.0138 8.82881,83.8471 9.5,82.5C 15.9628,73.9352 24.6294,69.6019 35.5,69.5C 52.7412,71.0174 68.0746,77.0174 81.5,87.5 Z"/></g>
<g><path style="opacity:1" fill="#f01f3a" d="M 206.5,80.5 C 203.67,90.84 197.336,98.34 187.5,103C 169.647,109.304 151.313,111.138 132.5,108.5C 132.597,102.795 131.264,97.4614 128.5,92.5C 128.414,91.5041 128.748,90.6708 129.5,90C 154.494,81.8913 179.327,73.3913 204,64.5C 204.945,64.9054 205.612,65.572 206,66.5C 206.499,71.1548 206.666,75.8215 206.5,80.5 Z"/></g>
<g><path style="opacity:1" fill="#fec50b" d="M 106.5,83.5 C 110.534,83.5045 114.534,83.8379 118.5,84.5C 119.605,85.6005 120.938,86.2671 122.5,86.5C 124.167,88.8333 126.167,90.8333 128.5,92.5C 131.264,97.4614 132.597,102.795 132.5,108.5C 132.5,109.833 132.5,111.167 132.5,112.5C 131.326,113.514 130.66,114.847 130.5,116.5C 128.58,119.762 126.246,122.762 123.5,125.5C 121.938,125.733 120.605,126.4 119.5,127.5C 117.597,127.796 115.93,128.463 114.5,129.5C 113.5,129.5 112.5,129.5 111.5,129.5C 111.167,129.5 110.833,129.5 110.5,129.5C 106.342,129.668 102.342,129.002 98.5,127.5C 95.8587,125.196 93.192,122.862 90.5,120.5C 89.3995,119.395 88.7329,118.062 88.5,116.5C 88.1667,115.833 87.8333,115.167 87.5,114.5C 86.6586,112.621 86.3253,110.621 86.5,108.5C 85.9795,103.154 86.9795,98.1538 89.5,93.5C 91.137,91.5248 92.8036,89.5248 94.5,87.5C 95.609,87.4431 96.609,87.1098 97.5,86.5C 100.285,84.9049 103.285,83.9049 106.5,83.5 Z"/></g>
<g><path style="opacity:1" fill="#f42c4a" d="M 9.5,82.5 C 8.82881,83.8471 8.82881,85.0138 9.5,86C 33.7657,88.8016 58.0991,90.1349 82.5,90C 81.7476,89.3292 81.4142,88.4959 81.5,87.5C 84.563,89.0252 87.2297,91.0252 89.5,93.5C 86.9795,98.1538 85.9795,103.154 86.5,108.5C 85.71,107.391 85.21,106.058 85,104.5C 83.5998,105.116 82.0998,105.449 80.5,105.5C 55.1904,103.131 29.8571,101.131 4.5,99.5C 4.61587,96.1401 4.9492,92.8067 5.5,89.5C 6.0787,86.6689 7.41203,84.3356 9.5,82.5 Z"/></g>
<g><path style="opacity:1" fill="#ffde00" d="M 105.5,88.5 C 123.286,89.1145 130.453,98.1145 127,115.5C 120.053,126.889 110.553,129.723 98.5,124C 90.1236,116.604 88.2903,107.771 93,97.5C 96.2991,93.1179 100.466,90.1179 105.5,88.5 Z"/></g>
<g><path style="opacity:1" fill="#ffef00" d="M 107.5,96.5 C 117.955,97.7765 121.788,103.443 119,113.5C 113.553,119.29 107.553,119.957 101,115.5C 96.0549,106.521 98.2216,100.188 107.5,96.5 Z"/></g>
<g><path style="opacity:1" fill="#f83e59" d="M 5.5,89.5 C 4.9492,92.8067 4.61587,96.1401 4.5,99.5C 29.8571,101.131 55.1904,103.131 80.5,105.5C 82.0998,105.449 83.5998,105.116 85,104.5C 85.21,106.058 85.71,107.391 86.5,108.5C 86.3253,110.621 86.6586,112.621 87.5,114.5C 85.4467,115.69 83.1134,116.357 80.5,116.5C 55.7646,114.793 31.098,112.626 6.5,110C 6.08527,107.974 5.08527,106.474 3.5,105.5C 2.43185,99.9166 3.09852,94.5832 5.5,89.5 Z"/></g>
<g><path style="opacity:1" fill="#fb4e68" d="M 3.5,105.5 C 5.08527,106.474 6.08527,107.974 6.5,110C 31.098,112.626 55.7646,114.793 80.5,116.5C 83.1134,116.357 85.4467,115.69 87.5,114.5C 87.8333,115.167 88.1667,115.833 88.5,116.5C 84.1316,119.684 79.4649,122.351 74.5,124.5C 54.8449,123.001 35.1782,121.501 15.5,120C 12.6195,119.65 9.95287,118.817 7.5,117.5C 5.19393,113.915 3.8606,109.915 3.5,105.5 Z"/></g>
<g><path style="opacity:1" fill="#fc526c" d="M 137.5,114.5 C 142.769,114.599 147.769,115.766 152.5,118C 165.695,131.529 179.195,144.696 193,157.5C 193.505,159.518 194.005,161.518 194.5,163.5C 194.31,166.855 193.31,169.855 191.5,172.5C 191.662,170.473 191.495,168.473 191,166.5C 172.914,149.245 155.08,131.911 137.5,114.5 Z"/></g>
<g><path style="opacity:1" fill="#fd5d74" d="M 7.5,117.5 C 9.95287,118.817 12.6195,119.65 15.5,120C 35.1782,121.501 54.8449,123.001 74.5,124.5C 60.2101,132.192 44.8768,135.359 28.5,134C 19.2053,131.36 12.2053,125.86 7.5,117.5 Z"/></g>
<g><path style="opacity:1" fill="#fe657b" d="M 135.5,112.5 C 152.627,114.396 168.294,120.23 182.5,130C 193.513,138.823 197.513,149.989 194.5,163.5C 194.005,161.518 193.505,159.518 193,157.5C 179.195,144.696 165.695,131.529 152.5,118C 147.769,115.766 142.769,114.599 137.5,114.5C 136.167,114.5 135.5,113.833 135.5,112.5 Z"/></g>
<g><path style="opacity:1" fill="#f5324f" d="M 90.5,120.5 C 93.192,122.862 95.8587,125.196 98.5,127.5C 89.1768,153.133 79.8435,178.8 70.5,204.5C 68.9291,203.691 67.2624,203.357 65.5,203.5C 61.6082,201.938 58.2749,199.605 55.5,196.5C 58.738,198.134 60.9047,197.134 62,193.5C 69.6822,171.099 77.5155,148.766 85.5,126.5C 84.3002,125.708 82.9669,125.708 81.5,126.5C 83.9754,123.759 86.9754,121.759 90.5,120.5 Z"/></g>
<g><path style="opacity:1" fill="#f63451" d="M 130.5,116.5 C 149.39,135.891 168.556,155.224 188,174.5C 188.483,175.448 188.649,176.448 188.5,177.5C 185.71,181.628 182.043,184.628 177.5,186.5C 177.586,185.504 177.252,184.671 176.5,184C 177.448,183.517 178.448,183.351 179.5,183.5C 179.649,182.448 179.483,181.448 179,180.5C 159.946,162.612 141.446,144.279 123.5,125.5C 126.246,122.762 128.58,119.762 130.5,116.5 Z"/></g>
<g><path style="opacity:1" fill="#209c36" d="M 119.5,127.5 C 120.101,133.362 121.101,139.029 122.5,144.5C 122.111,148.414 122.778,152.08 124.5,155.5C 123.861,156.097 123.528,156.93 123.5,158C 126.514,180.396 128.18,202.896 128.5,225.5C 128.194,228.385 128.527,231.052 129.5,233.5C 129.5,235.167 129.5,236.833 129.5,238.5C 128.502,264.661 128.169,290.995 128.5,317.5C 128.5,320.167 128.5,322.833 128.5,325.5C 127.532,327.607 127.198,329.941 127.5,332.5C 127.024,365.303 121.857,397.303 112,428.5C 109.827,434.004 106.827,439.004 103,443.5C 104.335,436.003 106.169,428.67 108.5,421.5C 108.413,429.322 109.246,429.322 111,421.5C 118.941,387.974 123.274,353.974 124,319.5C 125.642,268.743 124.309,218.077 120,167.5C 118.9,154.585 117.067,141.919 114.5,129.5C 115.93,128.463 117.597,127.796 119.5,127.5 Z"/></g>
<g><path style="opacity:1" fill="#f22643" d="M 123.5,125.5 C 141.446,144.279 159.946,162.612 179,180.5C 179.483,181.448 179.649,182.448 179.5,183.5C 178.448,183.351 177.448,183.517 176.5,184C 177.252,184.671 177.586,185.504 177.5,186.5C 170.649,190.151 163.649,190.817 156.5,188.5C 160.884,188.826 165.217,188.492 169.5,187.5C 165.272,182.103 160.272,177.603 154.5,174C 147.468,167.303 140.802,160.303 134.5,153C 130.868,150.37 127.535,147.37 124.5,144C 123.563,143.308 122.897,143.475 122.5,144.5C 121.101,139.029 120.101,133.362 119.5,127.5C 120.605,126.4 121.938,125.733 123.5,125.5 Z"/></g>
<g><path style="opacity:1" fill="#fa4862" d="M 98.5,127.5 C 102.342,129.002 106.342,129.668 110.5,129.5C 103.07,154.897 94.5702,179.897 85,204.5C 80.2633,205.469 75.43,205.803 70.5,205.5C 68.597,205.204 66.9303,204.537 65.5,203.5C 67.2624,203.357 68.9291,203.691 70.5,204.5C 79.8435,178.8 89.1768,153.133 98.5,127.5 Z"/></g>
<g><path style="opacity:1" fill="#2ab246" d="M 111.5,129.5 C 112.5,129.5 113.5,129.5 114.5,129.5C 117.067,141.919 118.9,154.585 120,167.5C 124.309,218.077 125.642,268.743 124,319.5C 123.274,353.974 118.941,387.974 111,421.5C 109.246,429.322 108.413,429.322 108.5,421.5C 113.63,392.217 116.963,362.717 118.5,333C 118.492,331.293 118.158,329.793 117.5,328.5C 119.334,324.486 120.001,320.153 119.5,315.5C 119.722,297.756 120.056,280.089 120.5,262.5C 120.5,255.5 120.5,248.5 120.5,241.5C 120.967,236.6 120.301,231.933 118.5,227.5C 119.162,225.696 119.495,223.696 119.5,221.5C 118.314,202.149 116.981,182.816 115.5,163.5C 114.386,152.136 113.052,140.803 111.5,129.5 Z"/></g>
<g><path style="opacity:1" fill="#f1223e" d="M 55.5,196.5 C 45.0926,182.102 44.926,167.435 55,152.5C 62.3749,142.291 71.2083,133.625 81.5,126.5C 82.9669,125.708 84.3002,125.708 85.5,126.5C 77.5155,148.766 69.6822,171.099 62,193.5C 60.9047,197.134 58.738,198.134 55.5,196.5 Z"/></g>
<g><path style="opacity:1" fill="#f9445f" d="M 132.5,112.5 C 133.5,112.5 134.5,112.5 135.5,112.5C 135.5,113.833 136.167,114.5 137.5,114.5C 155.08,131.911 172.914,149.245 191,166.5C 191.495,168.473 191.662,170.473 191.5,172.5C 190.89,174.434 189.89,176.101 188.5,177.5C 188.649,176.448 188.483,175.448 188,174.5C 168.556,155.224 149.39,135.891 130.5,116.5C 130.66,114.847 131.326,113.514 132.5,112.5 Z"/></g>
<g><path style="opacity:1" fill="#ef1a36" d="M 156.5,188.5 C 148.214,186.599 141.38,182.266 136,175.5C 131.112,169.444 127.279,162.777 124.5,155.5C 122.778,152.08 122.111,148.414 122.5,144.5C 122.897,143.475 123.563,143.308 124.5,144C 127.535,147.37 130.868,150.37 134.5,153C 140.802,160.303 147.468,167.303 154.5,174C 160.272,177.603 165.272,182.103 169.5,187.5C 165.217,188.492 160.884,188.826 156.5,188.5 Z"/></g>
<g><path style="opacity:1" fill="#fd6077" d="M 110.5,129.5 C 110.833,129.5 111.167,129.5 111.5,129.5C 113.052,140.803 114.386,152.136 115.5,163.5C 114.874,173.988 112.041,183.988 107,193.5C 97.1254,204.848 84.9588,208.848 70.5,205.5C 75.43,205.803 80.2633,205.469 85,204.5C 94.5702,179.897 103.07,154.897 110.5,129.5 Z"/></g>
<g><path style="opacity:1" fill="#27992b" d="M 164.5,213.5 C 173.351,215.704 182.351,216.871 191.5,217C 183.636,222.867 177.136,230.034 172,238.5C 170.296,240.373 168.463,242.04 166.5,243.5C 166.075,234.072 164.741,224.739 162.5,215.5C 163.243,214.818 163.909,214.151 164.5,213.5 Z"/></g>
<g><path style="opacity:1" fill="#6eae16" d="M 146.5,211.5 C 145.957,212.742 145.623,214.075 145.5,215.5C 147.502,226.181 149.502,236.848 151.5,247.5C 154.167,247.5 156.833,247.5 159.5,247.5C 154.276,248.795 148.943,248.628 143.5,247C 138.998,244.636 134.665,242.136 130.5,239.5C 130.5,238.833 130.167,238.5 129.5,238.5C 129.5,236.833 129.5,235.167 129.5,233.5C 129.557,232.391 129.89,231.391 130.5,230.5C 132.34,221.116 137.673,214.782 146.5,211.5 Z"/></g>
<g><path style="opacity:1" fill="#26992f" d="M 90.5,214.5 C 89.3588,215.339 88.0255,216.006 86.5,216.5C 85.0004,225.008 83.0004,233.342 80.5,241.5C 76.197,236.353 72.0304,231.02 68,225.5C 65.035,223.276 62.2016,220.942 59.5,218.5C 63.5643,218.555 67.8976,218.389 72.5,218C 78.5425,216.938 84.5425,215.771 90.5,214.5 Z"/></g>
<g><path style="opacity:1" fill="#6daf19" d="M 94.5,213.5 C 106.235,211.377 114.235,216.044 118.5,227.5C 120.301,231.933 120.967,236.6 120.5,241.5C 119.508,241.328 118.842,241.662 118.5,242.5C 109.518,250.03 99.5185,252.03 88.5,248.5C 92.0649,249.466 95.5649,249.466 99,248.5C 101.805,237.281 103.972,225.948 105.5,214.5C 101.865,213.886 98.1981,213.552 94.5,213.5 Z"/></g>
<g><path style="opacity:1" fill="#3e9f14" d="M 94.5,213.5 C 98.1981,213.552 101.865,213.886 105.5,214.5C 103.972,225.948 101.805,237.281 99,248.5C 95.5649,249.466 92.0649,249.466 88.5,248.5C 85.2358,246.906 82.5691,244.573 80.5,241.5C 83.0004,233.342 85.0004,225.008 86.5,216.5C 88.0255,216.006 89.3588,215.339 90.5,214.5C 91.7079,213.766 93.0413,213.433 94.5,213.5 Z"/></g>
<g><path style="opacity:1" fill="#42a118" d="M 164.5,213.5 C 163.909,214.151 163.243,214.818 162.5,215.5C 164.741,224.739 166.075,234.072 166.5,243.5C 164.66,245.669 162.326,247.002 159.5,247.5C 156.833,247.5 154.167,247.5 151.5,247.5C 149.502,236.848 147.502,226.181 145.5,215.5C 145.623,214.075 145.957,212.742 146.5,211.5C 152.755,210.236 158.755,210.902 164.5,213.5 Z"/></g>
<g><path style="opacity:1" fill="#b4dcb6" d="M 128.5,225.5 C 129.167,227.167 129.833,228.833 130.5,230.5C 129.89,231.391 129.557,232.391 129.5,233.5C 128.527,231.052 128.194,228.385 128.5,225.5 Z"/></g>
<g><path style="opacity:1" fill="#cdead5" d="M 118.5,242.5 C 118.842,241.662 119.508,241.328 120.5,241.5C 120.5,248.5 120.5,255.5 120.5,262.5C 119.833,255.833 119.167,249.167 118.5,242.5 Z"/></g>
<g><path style="opacity:1" fill="#62be75" d="M 129.5,238.5 C 130.167,238.5 130.5,238.833 130.5,239.5C 129.735,264.14 129.735,288.807 130.5,313.5C 130.011,314.995 129.345,316.329 128.5,317.5C 128.169,290.995 128.502,264.661 129.5,238.5 Z"/></g>
<g><path style="opacity:1" fill="#44a115" d="M 168.5,291.5 C 167.321,293.507 167.821,293.84 170,292.5C 173.331,305.649 175.497,318.982 176.5,332.5C 173.112,336.358 168.778,338.358 163.5,338.5C 162.791,337.596 161.791,337.263 160.5,337.5C 157.652,322.093 154.485,306.76 151,291.5C 149.644,292.38 148.144,292.714 146.5,292.5C 146.611,291.883 146.944,291.383 147.5,291C 154.679,288.979 161.679,289.145 168.5,291.5 Z"/></g>
<g><path style="opacity:1" fill="#389e16" d="M 84.5,291.5 C 87.5,291.5 90.5,291.5 93.5,291.5C 91.051,306.86 88.3843,322.194 85.5,337.5C 83.5,337.5 81.5,337.5 79.5,337.5C 76.6737,337.002 74.3403,335.669 72.5,333.5C 72.179,332.183 71.8457,330.849 71.5,329.5C 74.4965,317.66 76.4965,305.827 77.5,294C 78.7375,293.768 79.7375,293.268 80.5,292.5C 81.5676,291.566 82.901,291.232 84.5,291.5 Z"/></g>
<g><path style="opacity:1" fill="#209725" d="M 80.5,292.5 C 79.7375,293.268 78.7375,293.768 77.5,294C 76.4965,305.827 74.4965,317.66 71.5,329.5C 71.8457,330.849 72.179,332.183 72.5,333.5C 71.7611,333.631 71.0944,333.464 70.5,333C 63.7258,325.282 57.5591,317.115 52,308.5C 48.9219,304.915 45.4219,301.915 41.5,299.5C 45.1667,298.833 48.8333,298.167 52.5,297.5C 61.9201,296.263 71.2535,294.597 80.5,292.5 Z"/></g>
<g><path style="opacity:1" fill="#5ea90e" d="M 84.5,291.5 C 92.4603,289.261 99.7936,290.595 106.5,295.5C 106.821,296.817 107.154,298.151 107.5,299.5C 104.776,311.784 102.443,324.117 100.5,336.5C 98.5168,336.157 97.1834,336.824 96.5,338.5C 91.5842,339.611 86.5842,339.778 81.5,339C 80.5842,338.722 79.9175,338.222 79.5,337.5C 81.5,337.5 83.5,337.5 85.5,337.5C 88.3843,322.194 91.051,306.86 93.5,291.5C 90.5,291.5 87.5,291.5 84.5,291.5 Z"/></g>
<g><path style="opacity:1" fill="#25982d" d="M 168.5,291.5 C 177.448,293.486 186.448,295.32 195.5,297C 200.217,297.476 204.883,297.476 209.5,297C 199.925,304.245 192.091,313.078 186,323.5C 183.245,327.092 180.078,330.092 176.5,332.5C 175.497,318.982 173.331,305.649 170,292.5C 167.821,293.84 167.321,293.507 168.5,291.5 Z"/></g>
<g><path style="opacity:1" fill="#bbe3c5" d="M 52.5,297.5 C 48.8333,298.167 45.1667,298.833 41.5,299.5C 40.5266,299.013 39.5266,298.513 38.5,298C 43.1548,297.501 47.8215,297.334 52.5,297.5 Z"/></g>
<g><path style="opacity:1" fill="#6dae15" d="M 163.5,338.5 C 162.726,339.147 161.726,339.48 160.5,339.5C 149.1,337.631 138.767,333.298 129.5,326.5C 129.5,325.833 129.167,325.5 128.5,325.5C 128.5,322.833 128.5,320.167 128.5,317.5C 129.345,316.329 130.011,314.995 130.5,313.5C 132.884,304.132 138.218,297.132 146.5,292.5C 148.144,292.714 149.644,292.38 151,291.5C 154.485,306.76 157.652,322.093 160.5,337.5C 161.791,337.263 162.791,337.596 163.5,338.5 Z"/></g>
<g><path style="opacity:1" fill="#72b018" d="M 106.5,295.5 C 112.339,301.177 116.673,307.843 119.5,315.5C 120.001,320.153 119.334,324.486 117.5,328.5C 111.163,333.168 104.163,336.501 96.5,338.5C 97.1834,336.824 98.5168,336.157 100.5,336.5C 102.443,324.117 104.776,311.784 107.5,299.5C 107.154,298.151 106.821,296.817 106.5,295.5 Z"/></g>
<g><path style="opacity:1" fill="#a9d7b0" d="M 128.5,325.5 C 129.167,325.5 129.5,325.833 129.5,326.5C 128.833,328.5 128.167,330.5 127.5,332.5C 127.198,329.941 127.532,327.607 128.5,325.5 Z"/></g>
</svg>
