<svg xmlns="http://www.w3.org/2000/svg" width="194" height="200" style="shape-rendering:geometricPrecision;text-rendering:geometricPrecision;image-rendering:optimizeQuality;fill-rule:evenodd;clip-rule:evenodd"><path fill="#fbe9c5" d="M134 17v8l-4 1c0-1 1-2 3-2l-2-2-31 4-36-6-3-3c24-11 48-11 73 0Z" style="opacity:1"/><path fill="#938366" d="M58 18c2 1 3 3 4 6h-1l-3-6Z" style="opacity:1"/><path fill="#4a3427" d="M61 24h1a667 667 0 0 0 39 6c-1 1 0 3 1 5v6l-2 20c-14 3-26 8-38 14h-2L39 53v-2c5-11 13-20 22-27Z" style="opacity:1"/><path fill="#f4deb2" d="M58 18c0-1 1-2 3-1l3 3 36 6 31-4 2 2c-2 0-3 1-3 2l-34 3-34-5c-1-3-2-5-4-6Z" style="opacity:1"/><path fill="#9c8d70" d="m134 25 2 3-32 2c-2 1-3 3-2 5-1-2-2-4-1-5l-5-1a266 266 0 0 0 38-4Z" style="opacity:1"/><path fill="#4f3a2e" d="M134 17c15 6 27 15 37 29l-5-1h-2l-28-17-2-3v-8Z" style="opacity:1"/><path fill="#fae9c4" d="m136 28 28 17 3 34c-10 1-19 3-28 6l-35-25-2-19v-6c-1-2 0-4 2-5l32-2Z" style="opacity:1"/><path fill="#f9e7c1" d="m58 18 3 6c-9 7-17 16-22 27-6 3-12 7-16 12-4 3-6 7-8 12-2-2-4-4-6-4 7-21 20-37 39-49l10-4Z" style="opacity:1"/><path fill="#5e4838" d="m57 31 3 3-7 17 3 12c-7-3-11-7-11-14 2-7 6-13 12-18Z" style="opacity:1"/><path fill="#fae8c3" d="m39 53 21 22-5 46c-2 0-4 1-4 3-3 0-5 2-6 4-6 2-11 6-16 10-6-6-10-13-13-20a451 451 0 0 1-1-42c6-10 14-17 24-23Z" style="opacity:1"/><path fill="#9a8b6e" d="m102 41 2 19 35 25-2 7c0-5-1-8-4-10a707 707 0 0 0-33-21l2-20Z" style="opacity:1"/><path fill="#998a6c" d="M39 51v2c-10 6-18 13-24 23v-1c2-5 4-9 8-12 4-5 10-9 16-12Z" style="opacity:1"/><path fill="#fdeecc" d="M106 65v8l10 11c-4 2-7 2-9-2l-4 4c-2 0-2 1-1 3 4 2 4 5 2 9-4-1-5-3-5-6l-7 2v3c5 4 6 9 3 16-3 2-5 2-6-2-10 6-17 3-21-8h-4c-2 0-2 0-3 2v-3c0-7 0-14 2-20l4-5c10-5 21-10 33-14 2-1 4 0 6 2Z" style="opacity:1"/><path fill="#9c8c6e" d="M164 45h2l3 35-2-1-3-34Z" style="opacity:1"/><path fill="#fbe9c6" d="M106 65a8780 8780 0 0 0 26 21c1 12 0 24-3 36-1 0-2 1-2 3l-12 7-23 7c-12-5-22-12-30-20-1-2-2-4-1-5h-3v7h-1c-1-5 0-9 1-13l3-6v3c1-2 1-2 3-2h4c4 11 11 14 21 8 1 4 3 4 6 2 3-7 2-12-3-16v-3l7-2c0 3 1 5 5 6 2-4 2-7-2-9-1-2-1-3 1-3l4-4c2 4 5 4 9 2l-10-11v-8Z" style="opacity:1"/><path fill="#4a3428" d="m167 79 2 1 9 31c-4 10-8 20-14 30h-2l-27-13-1-2a1464 1464 0 0 0 5-41c9-3 18-5 28-6Z" style="opacity:1"/><path fill="#9d8e71" d="M60 75h2a1676 1676 0 0 0-5 46h-2l5-46Z" style="opacity:1"/><path fill="#614c3b" d="M5 86c-1-3 0-5 2-7-1 1 0 2 1 3l2-5v19c-1 2-2 3-4 2-1-5 0-9 1-13l-1-2-1 3Z" style="opacity:1"/><path fill="#4c372b" d="M9 71c2 0 4 2 6 4v1a451 451 0 0 0-3 36l-8 3c-2-10-2-20 1-29l1-3 1 2c-1 4-2 8-1 13 2 1 3 0 4-2V77l-2 5c-1-1-2-2-1-3 0-3 0-6 2-8Z" style="opacity:1"/><path fill="wheat" d="m166 45 5 1c18 24 23 51 16 82-6 18-16 34-30 47-2-1-3-2-4-1l11-33c6-10 10-20 14-30l-9-31-3-35Z" style="opacity:1"/><path fill="#5e4838" d="M147 88h3c-4 11-7 23-9 35l-2 2c-2-2-2-4-2-6 0-10 3-19 6-28 1-2 2-3 4-3Z" style="opacity:1"/><path fill="#fbe9c5" d="M11 139c-3-7-5-13-6-20l3-3c1-1 2-1 4 1l14 26c0 5 2 9 5 14l-2 1c-8-6-13-13-17-20l-1 1Z" style="opacity:1"/><path fill="#645145" d="M55 121h3v1c-3 0-3 1-1 3l8 8-3 3c-5-4-9-8-11-12 0-2 2-3 4-3Z" style="opacity:1"/><path fill="#958569" d="M14 106c-1 4 0 8 2 12 3 7 7 14 13 20l-1 2c-7-9-12-18-16-28l2-6Z" style="opacity:1"/><path fill="#fbe9c5" d="m131 130 22 10c3 3 3 7 0 11a94 94 0 0 1-54 29c-5 0-8-3-8-7 0-8 2-15 5-22 5-5 11-9 18-11l9-6c2-2 5-4 8-4Z" style="opacity:1"/><path fill="#634f41" d="M45 128c7-1 10 3 11 11l-1 5-6 6h-4c1 2 2 5 1 9a439 439 0 0 1-18-19l1-2c5-4 10-8 16-10Z" style="opacity:1"/><path fill="#4a3427" d="m58 122 35 24v1a689 689 0 0 0-8 32H58c-5 0-10-1-14-3-7-12-12-23-15-35l17 18c1-4 0-7-1-9h4l6-6 1-5c-1-8-4-12-11-11 1-2 3-4 6-4 2 4 6 8 11 12l3-3-8-8c-2-2-2-3 1-3Z" style="opacity:1"/><path fill="#f2ddb1" d="M100 61h4l29 21c3 2 4 5 4 10l-3 34-41 20-35-24v-8h3c-1 1 0 3 1 5 8 8 18 15 30 20l23-7 12-7c0-2 1-3 2-3 3-12 4-24 3-36l-8-8a8780 8780 0 0 1-24-15c-12 4-23 9-33 14l-4 5c-2 6-2 13-2 20l-3 6 4-33c12-6 24-11 38-14Z" style="opacity:1"/><path fill="#938568" d="m134 126 1 2c-2 0-3 0-4 2-3 0-6 2-8 4l-30 13v-1l41-20Z" style="opacity:1"/><path fill="#4a3428" d="m45 150-7-6c0-2 1-3 3-4l9-5c1 1 2 3 1 6-2 2-5 5-6 9Z" style="opacity:1"/><path fill="#97876a" d="M162 141h2l-11 33h-2l11-33Z" style="opacity:1"/><path fill="#f4deb2" d="m135 128 27 13-11 33-33 12-32-7v-3l7-29 30-13-9 6c-7 2-13 6-18 11-3 7-5 14-5 22 0 4 3 7 8 7 21-4 39-14 54-29 3-4 3-8 0-11l-22-10c1-2 2-2 4-2Z" style="opacity:1"/><path fill="#f5deb2" d="M12 112a119 119 0 0 0 17 29c3 12 8 23 15 35a415 415 0 0 0 43 5l29 7-5 7c-40 4-71-10-94-42l-6-14 1-1c4 7 9 14 17 20l2-1c-3-5-5-9-5-14l-14-26c-2-2-3-2-4-1l-3 3-1-4 8-3Z" style="opacity:1"/><path fill="#4e392d" d="M151 174h2c1-1 2 0 4 1a82 82 0 0 1-46 20l5-7 2-2 33-12Z" style="opacity:1"/><path fill="#9d8f71" d="M86 176v3l32 7-2 2-29-8-29-1h27c-1-2 0-3 1-3Z" style="opacity:1"/></svg>
