<?xml version="1.0" encoding="UTF-8" standalone="no"?>
<svg
   width="170"
   height="83"
   style="shape-rendering:geometricPrecision;text-rendering:geometricPrecision;image-rendering:optimizeQuality;fill-rule:evenodd;clip-rule:evenodd"
   version="1.1"
   id="svg42"
   sodipodi:docname="PistonPlane.svg"
   inkscape:version="1.4 (86a8ad7, 2024-10-11)"
   xmlns:inkscape="http://www.inkscape.org/namespaces/inkscape"
   xmlns:sodipodi="http://sodipodi.sourceforge.net/DTD/sodipodi-0.dtd"
   xmlns="http://www.w3.org/2000/svg"
   xmlns:svg="http://www.w3.org/2000/svg">
  <defs
     id="defs42" />
  <sodipodi:namedview
     id="namedview42"
     pagecolor="#ffffff"
     bordercolor="#111111"
     borderopacity="1"
     inkscape:showpageshadow="0"
     inkscape:pageopacity="0"
     inkscape:pagecheckerboard="1"
     inkscape:deskcolor="#d1d1d1"
     showgrid="false"
     inkscape:zoom="5.2882353"
     inkscape:cx="85"
     inkscape:cy="41.50723"
     inkscape:window-width="1920"
     inkscape:window-height="1017"
     inkscape:window-x="-8"
     inkscape:window-y="-8"
     inkscape:window-maximized="1"
     inkscape:current-layer="svg42" />
  <path
     fill="#8b8c8c"
     d="m 170,0 h -1 v 40 c 1,2 0,4 -1,6 l 2,32 z"
     style="opacity:0.271"
     id="path1" />
  <path
     fill="#5f5c5d"
     d="m 0,38 v 3 l 19,1 c 8,7 17,13 26,18 L 34,70 c -2,2 -2,3 0,5 12,3 24,3 36,0 10,3 20,3 30,1 -1,-2 -3,-2 -5,-2 l 1,1 c -9,1 -18,0 -28,-1 h -1 c -10,2 -20,2 -31,0 -2,-3 -2,-5 2,-5 L 49,59 C 38,55 29,49 20,41 l 1,-2 h -4 l -7,1 -8,-1 3,-2 c 4,-3 8,-4 12,-5 V 31 L 16,27 15,18 14,9 c 0,-5 2,-7 6,-7 4,-1 7,0 10,1 l 11,13 7,3 c 4,-2 8,-3 12,-2 1,-2 3,-3 4,-1 l 1,-2 a 380,380 0 0 0 34,-3 l 3,-1 v 2 c 6,-2 12,0 16,4 2,1 4,3 4,6 1,-1 2,0 2,1 8,0 15,2 21,5 3,0 4,2 4,4 3,-2 4,-1 5,1 l -1,2 h 2 c 6,0 10,2 13,7 -2,6 -7,8 -14,8 l -3,-3 3,7 c 0,1 0,2 -2,3 -3,3 -7,5 -13,7 l -34,4 v -5 l -4,-6 -3,2 c 5,1 7,5 6,11 l -3,4 1,1 c 2,-3 4,-4 6,-5 l 32,-5 12,-5 2,15 3,5 c 4,1 6,-1 7,-4 1,-9 0,-17 -3,-25 3,-1 6,-3 7,-5 1,-2 2,-4 1,-6 -2,-3 -5,-5 -9,-7 4,-9 4,-18 0,-27 -4,-3 -7,-2 -8,4 -1,6 0,13 1,19 L 126,21 C 115,9 102,5 85,9 72,11 59,13 46,17 L 42,15 C 39,10 36,6 31,2 26,0 20,0 14,3 l -2,4 3,24 C 10,32 5,35 0,38 Z"
     style="opacity:1"
     id="path2" />
  <path
     fill="#b66951"
     d="M 59,53 49,59 38,69 c 10,-1 19,0 28,2 1,1 2,2 1,3 h 1 v -1 c 0,-2 -1,-4 -3,-4 L 45,67 61,54 Z"
     style="opacity:1"
     id="path3" />
  <path
     fill="#5f4440"
     d="m 97,59 c -1,-1 -2,0 -3,2 2,0 3,-1 3,-2 z"
     style="opacity:1"
     id="path4" />
  <path
     fill="#e9c171"
     d="m 160,55 c -2,1 -3,3 -4,6 l -1,11 c 1,3 2,5 5,7 2,-2 3,-3 3,-5 1,-7 0,-14 -3,-19 z"
     style="opacity:1"
     id="path5" />
  <path
     fill="#b4985d"
     d="m 155,72 1,-11 c 1,-3 2,-5 4,-6 v -3 h -4 l -2,13 z"
     style="opacity:1"
     id="path6" />
  <path
     fill="#2881a1"
     d="m 146,50 c 1,2 0,4 -2,5 -11,4 -22,5 -35,4 l -2,-6 -6,4 4,6 v 5 l 34,-4 c 6,-2 10,-4 13,-7 z"
     style="opacity:1"
     id="path7" />
  <path
     fill="#43656c"
     d="m 122,51 h -14 l -1,2 z"
     style="opacity:1"
     id="path8" />
  <path
     fill="#319cc8"
     d="m 142,49 a 307,307 0 0 1 -35,4 l 2,6 c 13,1 24,0 35,-4 2,-1 3,-3 2,-5 -1,-1 -2,-2 -4,-1 z"
     style="opacity:1"
     id="path9" />
  <path
     fill="#dc775f"
     d="m 66,49 c 11,-1 22,0 32,1 -13,-1 -26,0 -39,3 l 2,1 -16,13 20,2 c 2,0 3,2 3,4 l 10,-4 16,-8 c 1,-2 2,-3 3,-2 h 1 l 3,-2 6,-4 1,-2 c -1,-3 -3,-5 -7,-5 -11,-2 -23,-1 -35,3 z"
     style="opacity:1"
     id="path10" />
  <path
     fill="#975545"
     d="m 66,49 h -2 l -4,2 -1,2 C 72,50 85,49 98,50 88,49 77,48 66,49 Z"
     style="opacity:1"
     id="path11" />
  <path
     fill="#75533d"
     d="m 60,48 v 1 h 6 c 12,-4 24,-5 35,-3 0,-1 -1,-2 -3,-2 H 88 c -9,0 -18,2 -28,4 z"
     style="opacity:1"
     id="path12" />
  <path
     fill="#2d7d9b"
     d="m 31,34 -1,2 -9,3 -1,2 c 9,8 18,14 29,18 l 10,-6 1,-2 c -3,-1 -5,0 -6,3 -8,0 -16,-4 -23,-10 l 29,5 v -1 l -10,-2 -3,-3 -2,2 -15,-4 4,-6 c 0,-1 -1,-2 -3,-1 z"
     style="opacity:1"
     id="path13" />
  <path
     fill="#319dca"
     d="m 60,51 4,-2 H 60 L 31,44 c 7,6 15,10 23,10 1,-3 3,-4 6,-3 z"
     style="opacity:1"
     id="path14" />
  <path
     fill="#654633"
     d="m 153,35 c -1,0 -2,1 -2,3 v 9 z"
     style="opacity:1"
     id="path15" />
  <path
     fill="#e07960"
     d="m 5,37 -3,2 8,1 C 9,38 8,37 5,37 Z"
     style="opacity:1"
     id="path16" />
  <path
     fill="#d9765e"
     d="m 155,35 h -2 l -2,12 3,3 c 7,0 12,-2 14,-8 -3,-5 -7,-7 -13,-7 z"
     style="opacity:1"
     id="path17" />
  <path
     fill="#e6bf70"
     d="m 149,32 c -2,5 -3,11 -3,18 l 6,7 c 2,-1 2,-2 2,-3 l -3,-7 v -9 c 0,-2 1,-3 2,-3 l 1,-2 c -1,-2 -2,-3 -5,-1 z"
     style="opacity:1"
     id="path18" />
  <path
     fill="#945648"
     d="m 28,33 c -3,-1 -7,-2 -11,-1 -4,1 -8,2 -12,5 3,0 4,1 5,3 l 7,-1 -6,-1 c -1,-1 -1,-2 1,-2 5,-3 11,-4 16,-3 z"
     style="opacity:1"
     id="path19" />
  <path
     fill="#db765d"
     d="m 28,33 c -5,-1 -11,0 -16,3 -2,0 -2,1 -1,2 l 6,1 h 4 l 9,-3 1,-2 z"
     style="opacity:1"
     id="path20" />
  <path
     fill="#846e48"
     d="m 149,32 c -1,0 -3,1 -3,4 l -4,13 c 2,-1 3,0 4,1 0,-7 1,-13 3,-18 z"
     style="opacity:1"
     id="path21" />
  <path
     fill="#3b6a81"
     d="m 91,14 -1,2 -1,11 -5,3 -18,-1 C 63,25 63,21 64,17 v -1 c -1,-2 -3,-1 -4,1 l 2,12 4,3 h 21 l 4,-2 c 1,-4 2,-7 1,-10 l -1,6 z"
     style="opacity:1"
     id="path22" />
  <path
     fill="#436c81"
     d="m 99,11 c -3,3 -5,7 -5,12 0,4 1,6 4,8 11,1 19,-1 26,-8 0,-1 -1,-2 -2,-1 l -5,2 c -5,3 -11,5 -18,4 l -1,-8 4,-8 v -2 z"
     style="opacity:1"
     id="path23" />
  <path
     fill="#95bcd2"
     d="m 98,20 1,8 c 7,1 13,-1 18,-4 h -14 z"
     style="opacity:1"
     id="path24" />
  <path
     fill="#339ac6"
     d="m 15,18 1,9 h 4 L 18,11 h -3 z"
     style="opacity:1"
     id="path25" />
  <path
     fill="#c6a664"
     d="m 155,7 -1,2 c -1,8 0,17 1,26 h 4 v -3 l -3,-6 z"
     style="opacity:1"
     id="path26" />
  <path
     fill="#3d7c99"
     d="m 92,12 -1,2 v 12 l 1,-6 c 1,-4 2,-7 4,-9 l -1,-1 z"
     style="opacity:1"
     id="path27" />
  <path
     fill="#eec471"
     d="m 96,11 c -2,2 -3,5 -4,9 1,3 0,6 -1,10 l -4,2 H 66 L 62,29 60,17 c -4,-1 -8,0 -12,2 -3,7 -3,15 -1,24 l 3,3 10,2 c 10,-2 19,-4 28,-4 h 10 c 2,0 3,1 3,2 4,0 6,2 7,5 h 14 l 20,-2 4,-13 c 0,-3 2,-4 3,-4 0,-2 -1,-4 -4,-4 -6,-3 -13,-5 -21,-5 -7,7 -15,9 -26,8 -3,-2 -4,-4 -4,-8 0,-5 2,-9 5,-12 0,-2 -1,-2 -3,0 z"
     style="opacity:1"
     id="path28" />
  <path
     fill="#99c0d6"
     d="m 64,17 c -1,4 -1,8 2,12 l 18,1 -15,-5 c -3,-2 -4,-5 -5,-8 z"
     style="opacity:1"
     id="path29" />
  <path
     fill="#bddde8"
     d="m 92,12 -3,-1 a 380,380 0 0 1 -25,5 v 1 c 1,3 2,6 5,8 l 15,5 5,-3 1,-11 1,-2 z"
     style="opacity:1"
     id="path30" />
  <path
     fill="#2b708e"
     d="m 14,9 1,9 v -7 h 3 l 2,16 h -4 l 1,4 v -3 h 4 C 21,21 21,15 19,9 Z"
     style="opacity:1"
     id="path31" />
  <path
     fill="#bddde8"
     d="m 102,12 -4,8 5,4 h 14 l 5,-2 c 0,-3 -2,-5 -4,-6 -4,-4 -10,-6 -16,-4 z"
     style="opacity:1"
     id="path32" />
  <path
     fill="#efc572"
     d="m 155,7 1,19 3,6 c 2,-7 3,-14 2,-21 l -3,-5 c -1,-1 -2,-1 -3,1 z"
     style="opacity:1"
     id="path33" />
  <path
     fill="#339bc8"
     d="m 14,9 h 5 c 2,6 2,12 2,19 h -4 v 4 c 4,-1 8,0 11,1 l 3,1 c 2,-1 3,0 3,1 l -4,6 15,4 2,-2 C 45,34 45,26 48,19 L 41,16 30,3 C 27,2 24,1 20,2 16,2 14,4 14,9 Z"
     style="opacity:1"
     id="path34" />
  <path
     fill="#989898"
     d="m 11,68 c -1,0 -2,0 -1,2 z"
     style="opacity:0.122"
     id="path35" />
  <path
     fill="#afb1b8"
     d="m 98,59 h -1 c 0,1 -1,2 -3,2 -1,4 -1,8 1,13 2,0 4,0 5,2 l 2,-1 -1,-1 3,-4 c 1,-6 -1,-10 -6,-11 z"
     style="opacity:1"
     id="path36" />
  <path
     fill="#71747a"
     d="m 100,62 c 1,2 0,5 -1,8 l 2,1 c 3,-4 3,-7 -1,-9 z"
     style="opacity:1"
     id="path37" />
  <path
     fill="#2a2729"
     d="m 100,62 c 0,-2 -1,-2 -2,-1 -2,3 -2,6 0,10 h 3 l -2,-1 c 1,-3 2,-6 1,-8 z"
     style="opacity:1"
     id="path38" />
  <path
     fill="#2d7793"
     d="m 94,61 -16,8 -10,4 v 1 c 10,1 19,2 28,1 L 95,74 C 93,69 93,65 94,61 Z"
     style="opacity:1"
     id="path39" />
  <path
     fill="#319cc9"
     d="m 92,63 -8,8 8,1 z"
     style="opacity:1"
     id="path40" />
  <path
     fill="#ecc471"
     d="m 38,69 c -4,0 -4,2 -2,5 11,2 21,2 31,0 1,-1 0,-2 -1,-3 -9,-2 -18,-3 -28,-2 z"
     style="opacity:1"
     id="path41" />
  <path
     fill="#959595"
     d="m 5,71 v 4 z"
     style="opacity:0.11"
     id="path42" />
</svg>
