<?xml version="1.0" encoding="UTF-8" standalone="no"?>
<!-- Uploaded to: SVG Repo, www.svgrepo.com, Generator: SVG Repo Mixer Tools -->

<svg
   width="800px"
   height="800px"
   viewBox="0 0 1024 1024"
   class="icon"
   version="1.1"
   id="svg61"
   sodipodi:docname="Rhino.svg"
   inkscape:version="1.4 (86a8ad7, 2024-10-11)"
   xmlns:inkscape="http://www.inkscape.org/namespaces/inkscape"
   xmlns:sodipodi="http://sodipodi.sourceforge.net/DTD/sodipodi-0.dtd"
   xmlns="http://www.w3.org/2000/svg"
   xmlns:svg="http://www.w3.org/2000/svg">
  <defs
     id="defs61" />
  <sodipodi:namedview
     id="namedview61"
     pagecolor="#ffffff"
     bordercolor="#111111"
     borderopacity="1"
     inkscape:showpageshadow="0"
     inkscape:pageopacity="0"
     inkscape:pagecheckerboard="1"
     inkscape:deskcolor="#d1d1d1"
     inkscape:zoom="0.96625"
     inkscape:cx="400"
     inkscape:cy="400"
     inkscape:window-width="1920"
     inkscape:window-height="1017"
     inkscape:window-x="-8"
     inkscape:window-y="-8"
     inkscape:window-maximized="1"
     inkscape:current-layer="svg61" />
  <path
     d="m 532.58041,702.13432 c -36.02482,-10.05768 -62.2642,-20.13534 -78.72312,-30.22298 -24.68839,-15.13772 78.46837,-194.3552 42.54345,-270.65319 -18.25218,-38.76714 -47.3138,-64.21479 -94.98474,-61.14529 -38.93448,-33.97932 -121.19914,-3.79879 -148.485,43.91212 -23.47208,41.03992 -19.19126,76.15313 -33.14513,93.17151 18.14228,26.19442 31.4393,24.96562 44.76129,25.67493 20.54743,1.09393 40.40055,-15.32754 52.47625,-32.89788 6.59107,73.60312 -0.78673,169.9865 40.62283,218.55407 43.66986,51.21998 101.98291,63.32316 174.93417,36.31204 z"
     fill="#dea882"
     id="path1" />
  <path
     d="m 479.18755,708.04855 c -26.48414,0.43457 -47.34377,-4.68043 -62.5714,-15.35001 -29.45373,-20.63485 -45.96261,-24.9856 -54.4718,-135.55263 -3.62396,-47.07153 -0.64437,-127.17331 -34.13666,-140.17311 -33.49479,-12.99981 -50.50818,9.70802 -74.29495,36.23461 -5.67446,6.32882 -12.37292,14.41343 -26.48164,15.2626 -7.96222,0.47953 -21.58892,13.01229 26.48164,34.21159 9.86537,4.35075 29.5936,-3.08449 59.17721,-22.30572 2.84472,75.4738 7.8823,123.87403 15.11774,145.2007 6.69346,19.73573 21.5015,46.67442 44.4341,80.80859 a 29.990712,29.990712 0 0 0 15.14771,11.63364 l 91.61803,31.45178 a 18.41202,18.41202 0 0 0 24.38369,-17.41299 c 0,-13.26455 -10.752,-24.01405 -24.01155,-24.01405 z"
     fill="#ffddc5"
     id="path2" />
  <path
     d="m 525.08772,719.56979 c -67.80128,23.6569 -121.18165,11.66112 -161.74204,-35.90743 -22.56047,-26.45666 -31.07216,-66.32273 -34.7161,-138.08015 -0.33717,-6.63103 -0.54197,-11.19158 -1.10392,-24.18139 -1.1314,-26.06455 -1.79575,-38.20019 -3.04203,-52.09912 -0.62439,-6.99067 -9.65807,-9.36086 -13.63419,-3.57651 -13.02977,18.95399 -31.25448,31.93382 -46.41967,31.1271 -2.14041,-0.11239 -2.79726,-0.14985 -3.5815,-0.1998 -13.02478,-0.82919 -20.83715,-4.65795 -31.88386,-19.50595 3.72886,-6.18646 6.16648,-13.93639 8.99371,-26.31431 0.18732,-0.82419 2.45011,-10.99426 3.18939,-14.15367 a 253.3351,253.3351 0 0 1 4.02857,-15.31005 c 3.59648,-11.9833 8.10958,-22.88016 14.25607,-33.62716 26.47915,-46.2923 103.70873,-71.09058 137.05866,-41.984 a 7.490185,7.490185 0 0 0 5.40722,1.83321 c 40.96499,-2.63993 68.88772,16.85354 87.72683,56.86197 11.31645,24.03902 8.55664,61.69974 -5.61452,113.65151 -3.80129,13.93639 -8.27692,28.47969 -14.08874,46.13744 -2.67988,8.14705 -11.52625,34.43637 -12.66264,37.86053 -4.62548,13.9289 -7.70747,23.81175 -10.04019,32.41584 -6.61604,24.43364 -7.1705,37.71817 2.72234,43.77975 16.30158,9.99524 41.30466,19.78318 75.14661,29.50119 z M 312.55028,522.05268 c 0.56695,13.02478 0.77424,17.60531 1.11142,24.29128 1.74579,34.43637 4.20589,58.5753 8.92878,80.6912 5.96417,27.92024 15.30505,49.88379 29.34884,66.35021 45.82025,53.73752 107.47254,66.53752 183.23855,38.47992 a 7.48519,7.48519 0 0 0 4.89522,-7.02564 v -22.70533 a 7.492683,7.492683 0 0 0 -5.47715,-7.21795 c -35.20562,-9.8304 -60.77565,-19.62583 -76.54525,-29.22396 -0.46954,-1.47356 -0.62689,-3.19438 -0.53198,-5.50712 0.2098,-5.07754 1.59594,-12.26303 4.16593,-21.75126 2.24031,-8.27192 5.25487,-17.92999 9.80043,-31.61413 1.11891,-3.3767 9.97526,-29.6935 12.67263,-37.89799 5.88175,-17.87754 10.42981,-32.65311 14.30852,-46.87672 15.0603,-55.20359 18.0274,-95.70404 4.7154,-123.97893 -20.83965,-44.26177 -53.23551,-67.50408 -99.25058,-65.59094 -42.27372,-33.02775 -127.35563,-4.89023 -157.50618,47.82829 -6.74592,11.79598 -11.69109,23.73682 -15.59977,36.7591 a 271.75961,271.75961 0 0 0 -4.26583,16.20168 c -0.76426,3.25682 -3.03954,13.48433 -3.20937,14.2361 -3.09698,13.56925 -5.49463,20.23274 -9.35836,24.94064 a 7.492683,7.492683 0 0 0 -0.36464,9.01869 c 15.35001,22.16086 27.55559,28.95922 46.27231,30.14806 0.85666,0.0549 1.54849,0.0924 3.02954,0.16984 17.08332,0.90911 33.97182,-8.12956 48.01561,-22.56047 0.5095,8.44675 0.98654,18.51442 1.60593,32.83543 z"
     fill="#524f75"
     id="path3" />
  <path
     d="m 310.05022,481.52976 c 0,-18.31462 -5.9392,-32.10365 -15.3625,-32.54322 a 7.492683,7.492683 0 1 1 0.70182,-14.96789 c 20.56492,0.96156 29.64855,22.04348 29.64855,47.51111 a 7.4939315,7.4939315 0 1 1 -14.98787,0 z m 93.70599,-148.47501 c 27.67298,24.72586 40.10084,53.77249 36.7691,86.5305 a 7.4936558,7.4936558 0 1 1 -14.91044,-1.51602 c 2.82724,-27.78537 -7.61756,-52.19403 -31.84391,-73.84039 a 7.4927538,7.4927538 0 1 1 9.98525,-11.17409 z"
     fill="#524f75"
     id="path4" />
  <path
     d="m 679.93651,578.98708 47.91321,7.92726 a 22.450576,22.450576 0 0 0 13.82899,-2.48507 l 33.8969,-33.85444 c -0.0325,-0.55696 -0.32968,-4.42068 -0.32968,-4.97514 0,-9.15606 5.18494,-11.05421 11.72855,-16.54884 a 22.965073,22.965073 0 0 1 12.09568,-17.23567 l 11.5737,-6.10654 c 4.84527,-2.555 10.86689,-0.91161 13.69413,3.74385 a 9.623102,9.623102 0 0 1 -2.18537,12.48531 h 18.9465 c 8.92628,0 16.16422,7.15301 16.16421,15.97939 0,9.60062 -6.05408,18.18474 -15.16768,21.504 l -27.72543,10.10263 -52.05916,71.54514 a 40.555395,40.555395 0 0 1 -20.63485,11.20405 l -61.7397,12.07821"
     fill="#dea882"
     id="path5" />
  <path
     d="m 767.86064,547.69264 c -0.0774,-1.11641 -0.10739,-1.67586 -0.10739,-2.09295 0,-7.8873 2.7598,-12.89741 8.53666,-17.65526 0.47953,-0.39462 2.30775,-1.81073 3.85124,-3.01955 a 30.465249,30.465249 0 0 1 15.43493,-19.73573 l 11.57369,-6.10653 c 8.33686,-4.40071 18.69924,-1.56847 23.58947,6.47867 a 17.053346,17.053346 0 0 1 2.49256,8.88382 h 7.86732 c 13.04476,0 23.6569,10.48726 23.6569,23.47208 0,12.76004 -8.03216,24.15142 -20.09538,28.54712 l -25.57502,9.3184 -50.71548,69.69444 c -0.21978,0.30221 -0.46454,0.58693 -0.72679,0.85417 a 48.038088,48.038088 0 0 1 -24.44612,13.27703 l -61.82463,12.09569 a 7.49518,7.49518 0 0 1 -2.87968,-14.70814 l 61.7472,-12.0757 a 33.007766,33.007766 0 0 0 16.36152,-8.73647 l 51.712,-71.0656 a 7.500176,7.500176 0 0 1 3.49159,-2.63243 l 27.72542,-10.10264 c 6.16398,-2.2453 10.24,-8.02466 10.24,-14.46587 0,-4.66794 -3.86373,-8.48671 -8.67153,-8.48671 h -18.9465 c -7.0631,0 -10.20253,-8.87883 -4.7104,-13.31949 a 2.122927,2.122927 0 0 0 0.49452,-2.76481 2.884683,2.884683 0 0 0 -3.7938,-1.00651 l -11.57369,6.10653 a 15.464898,15.464898 0 0 0 -8.16953,11.61366 c -0.24975,1.8457 -1.17884,3.53155 -2.60745,4.73288 -1.44858,1.21382 -5.51461,4.34076 -5.97666,4.72039 -2.54751,2.09795 -3.0795,3.06701 -3.07949,6.08905 0,-0.0375 0.0599,0.91161 0.13486,1.9556 l 0.11489,1.62091 c 0.04,0.53698 0.0575,0.79922 0.0674,0.97655 a 7.492683,7.492683 0 0 1 -2.18537,5.72441 l -33.8969,33.85444 c -0.5095,0.507 -1.09143,0.94158 -1.72332,1.28624 a 29.905795,29.905795 0 0 1 -18.44698,3.31426 l -48.08804,-7.95223 a 7.4933906,7.4933906 0 0 1 2.44761,-14.78556 l 47.91321,7.92726 a 14.795551,14.795551 0 0 0 8.15953,-1.24379 z"
     fill="#524f75"
     id="path6" />
  <path
     d="m 824.61022,533.6014 -11.48129,1.01901 a 10.394849,10.394849 0 0 0 -8.76394,14.1362 12.043239,12.043239 0 0 0 17.12328,6.11402 l 8.76394,-4.93518 a 8.501698,8.501698 0 0 0 3.84625,-10.235 9.20601,9.20601 0 0 0 -9.48824,-6.09905 z"
     fill="#ffddc5"
     id="path7" />
  <path
     d="m 695.37268,662.2079 c 11.69924,1.66222 22.73522,4.34989 33.10297,8.07237 10.37106,3.71624 18.43421,16.20818 24.19202,37.46717 2.92604,27.76599 -14.21192,54.64857 -42.05219,63.15758 l -28.47485,8.70564 c -24.16852,7.38906 -49.7203,-6.10506 -57.06919,-30.14221 l -0.59951,-1.9609 c -5.09034,-16.64974 -1.62033,-34.19032 8.29942,-47.49744"
     fill="#dea882"
     id="path8" />
  <path
     d="m 708.42961,763.73828 -28.47724,8.70636 c -20.2221,6.18513 -41.57891,-5.09448 -47.71565,-25.16684 l -0.5995,-1.9609 c -4.2944,-14.04635 -1.55995,-29.1578 7.14165,-40.82843 a 7.4930573,7.4930573 0 0 0 -12.01503,-8.95672 c -11.53016,15.46311 -15.15727,35.52237 -9.4572,54.16645 l 0.59951,1.9609 c 8.56105,28.00195 38.30926,43.71534 66.42751,35.11612 l 28.47798,-8.70398 c 30.94449,-9.46068 50.64938,-39.43677 47.31314,-71.10717 l -0.0648,-0.59653 -0.1578,-0.57595 c -6.33645,-23.39081 -15.64606,-37.81561 -28.89542,-42.56623 -10.85644,-3.89431 -22.38945,-6.70425 -34.58233,-8.43492 a 7.4933152,7.4933152 0 0 0 -2.10505,14.83805 c 11.20413,1.58898 21.74453,4.15916 31.62691,7.70357 7.41348,2.66171 14.16551,13.02639 19.32936,31.7874 2.28821,24.33858 -12.97529,47.32342 -36.84599,54.61882 z"
     fill="#524f75"
     id="path9" />
  <path
     d="m 684.848,636.6584 a 8.356839,8.356839 0 1 0 13.85611,-9.34641 8.356839,8.356839 0 1 0 -13.85611,9.34641 z"
     fill="#524f75"
     id="path10" />
  <path
     d="m 658.24489,751.50979 c 33.0065,-4.69798 56.67959,-7.16404 71.0233,-7.402 12.24757,-0.20041 27.67878,1.05993 46.29986,3.78433 a 22.003512,22.003512 0 0 1 18.78906,22.9214 19.723239,19.723239 0 0 1 -20.72575,18.6584 L 656.79391,783.351 a 14.503337,14.503337 0 0 1 -13.72909,-15.24654 17.697717,17.697717 0 0 1 15.18007,-16.59467 z"
     fill="#dea882"
     id="path11" />
  <path
     d="m 650.54866,768.49339 a 7.013151,7.013151 0 0 0 6.63583,7.37065 l 116.84297,6.12184 a 12.223063,12.223063 0 0 0 12.846,-11.56919 14.510829,14.510829 0 0 0 -12.38922,-15.11817 c -18.24972,-2.66296 -33.30326,-3.89251 -45.09011,-3.69715 -13.95478,0.22875 -37.37754,2.66789 -70.09311,7.32654 a 10.202537,10.202537 0 0 0 -8.74997,9.56475 z m 78.59984,-31.87587 c 12.69655,-0.2097 28.51331,1.08163 47.5021,3.85554 a 29.498693,29.498693 0 0 1 25.18796,30.73012 c -0.78601,15.00935 -13.58751,26.53621 -28.59447,25.74946 L 656.40113,790.8308 a 21.998517,21.998517 0 0 1 -20.81684,-23.12151 25.185405,25.185405 0 0 1 21.60447,-23.61763 c 33.29193,-4.73823 57.22324,-7.231 71.95974,-7.47414 z"
     fill="#524f75"
     id="path12" />
  <path
     d="m 788.08207,762.94864 -18.73419,-0.9844 a 7.4936225,7.4936225 0 1 0 -0.78337,14.96676 l 18.73273,0.97962 a 7.492683,7.492683 0 1 0 0.78483,-14.96198 z"
     fill="#524f75"
     id="path13" />
  <path
     d="m 638.04741,490.36613 h -47.65346 c -32.23852,0 -62.18427,56.77955 -74.76199,86.40562 l -29.12156,68.6055 c -17.29811,40.74521 1.78076,87.77678 42.60589,105.03742 a 80.398985,80.398985 0 0 0 31.31942,6.3488 h 96.6581 c 44.3417,-0.002 80.2866,-35.87496 80.2866,-80.13174 0,-5.64949 -1.45109,-13.73159 -2.63743,-19.2562 l -13.2021,-57.51134 c -5.00262,-23.27726 -24.81077,-67.2693 -44.77877,-80.74115 -11.71856,-7.90727 -24.71587,-28.75691 -38.7147,-28.75691 z"
     fill="#dea882"
     id="path14" />
  <path
     d="m 638.04741,497.85881 c 4.41569,0 9.70552,3.82127 19.3611,13.63668 9.04616,9.19353 10.90684,10.96929 15.16269,13.83649 15.75961,10.63462 35.95489,49.63653 41.66681,76.20808 l 13.17963,57.41143 c 1.47855,6.88828 2.47009,13.50681 2.47008,17.68024 0,40.11582 -32.58817,72.63656 -72.79391,72.63656 h -96.6606 a 72.878829,72.878829 0 0 1 -28.39977,-5.75688 C 495.01959,727.8592 477.72897,685.23333 493.40616,648.30189 l 29.12156,-68.6055 c 19.30865,-45.49058 45.89019,-81.84008 67.86373,-81.84008 h 47.65596 z m 0,-14.98537 h -47.65346 c -17.69522,0 -34.54626,12.93487 -50.80289,35.16316 -11.72854,16.04184 -22.57545,36.29956 -30.85487,55.808 l -29.12156,68.60301 c -18.91403,44.56398 1.9456,95.99376 46.58451,114.86782 a 87.94162,87.94162 0 0 0 34.23657,6.93823 h 96.6581 c 48.47516,0 87.77928,-39.22669 87.77928,-87.62193 0,-5.50713 -1.11641,-12.97733 -2.82724,-20.93206 l -13.17963,-57.41144 c -6.42372,-29.89081 -28.30486,-72.14704 -47.91321,-85.37662 -3.02954,-2.04301 -4.77783,-3.70888 -12.86244,-11.92585 -12.67262,-12.88242 -19.91305,-18.11232 -30.04316,-18.11232 z"
     fill="#524f75"
     id="path15" />
  <path
     d="m 659.03192,579.43415 a 56.270049,56.270049 0 0 0 -53.87489,40.02091 l -12.41288,41.14982 c -10.04519,33.30248 8.8064,68.44066 42.10888,78.48835 a 63.028449,63.028449 0 0 0 18.18974,2.68238 h 7.39278 c 35.58775,0 64.43707,-28.84933 64.43707,-64.43957 0,-5.64948 -0.74177,-11.27649 -2.21034,-16.73116 L 711.6905,619.80222 a 54.529249,54.529249 0 0 0 -52.65858,-40.36807 z"
     fill="#ffddc5"
     id="path16" />
  <path
     d=""
     fill="#dea882"
     id="path17" />
  <path
     d=""
     fill="#524f75"
     id="path18" />
  <path
     d=""
     fill="#524f75"
     id="path19" />
  <path
     d="m 551.27715,755.56464 c -32.81795,-3.49658 -56.33249,-5.1175 -70.53112,-4.85276 -12.13066,0.22478 -27.36078,2.00554 -45.69788,5.34478 a 21.746263,21.746263 0 0 0 -17.77264,23.28976 19.488468,19.488468 0 0 0 21.11438,17.7152 l 115.41729,-10.09764 a 14.340995,14.340995 0 0 0 13.03727,-15.53483 17.482927,17.482927 0 0 0 -15.5673,-15.86451 z"
     fill="#dea882"
     id="path20" />
  <path
     d="m 550.48542,763.01237 a 9.990244,9.990244 0 0 1 8.89631,9.06615 6.848312,6.848312 0 0 1 -6.22641,7.42025 l -115.41979,10.10014 a 11.995785,11.995785 0 0 1 -12.99481,-10.90935 14.25358,14.25358 0 0 1 11.64613,-15.26509 c 17.97245,-3.26681 32.82045,-5.00511 44.49654,-5.2224 13.80902,-0.25475 37.0688,1.34369 69.60203,4.8103 z m 1.58845,-14.89795 c -33.11516,-3.52905 -56.87446,-5.16496 -71.4702,-4.89522 -12.58022,0.23227 -28.19497,2.05799 -46.89671,5.46217 a 29.241444,29.241444 0 0 0 -23.89666,31.31192 c 1.29873,14.8455 14.38595,25.82977 29.22896,24.52605 l 115.42228,-10.09515 a 21.828683,21.828683 0 0 0 19.84562,-23.6519 24.970615,24.970615 0 0 0 -22.23329,-22.65787 z"
     fill="#524f75"
     id="path21" />
  <path
     d="m 423.20722,771.2718 18.50193,-1.61842 a 7.492683,7.492683 0 0 1 1.30373,14.92793 l -18.49944,1.61842 a 7.492683,7.492683 0 1 1 -1.30622,-14.92793 z"
     fill="#524f75"
     id="path22" />
  <path
     d="m 561.74987,576.59867 c 15.1827,18.70719 18.13594,32.01829 24.85279,52.14723 9.67149,0.42497 22.50677,3.47487 38.51365,9.15086 2.94511,-3.17459 7.00731,-5.40744 12.67078,-7.39007 10.57227,-3.70031 20.49048,-4.55138 22.4347,-4.60001 7.81548,-0.19119 14.25499,-0.90819 18.29476,3.13212 2.69385,2.69258 3.48897,13.38655 -7.39654,15.08025 14.99208,0.5824 25.15232,5.04487 24.05181,12.87002 -1.10052,7.82514 -11.82718,8.54994 -32.18043,2.17193 21.25656,4.79852 30.46254,11.01177 27.61881,18.64469 -2.84373,7.63291 -16.20367,9.10099 -40.08503,4.41785 l -15.80195,-3.96729 a 21.658849,21.658849 0 0 1 -11.19176,-6.91812 c -31.63625,5.0711 -51.84843,3.79366 -60.63522,-3.82496 -9.08653,-7.88024 -23.56709,-18.36243 -38.39486,-45.54187"
     fill="#dea882"
     id="path23" />
  <path
     d="m 696.58079,667.85631 c -2.61403,1.74418 -5.94933,2.76342 -9.77384,3.02187 -4.03993,0.2736 -8.89112,-0.22781 -14.63054,-1.48052 A 133.81432,133.81432 0 0 1 660.7496,666.3099 c -9.15118,-2.86767 -5.46558,-16.5708 3.88956,-14.45934 a 135.18049,135.18049 0 0 1 11.42277,3.05043 c 5.82932,1.86327 10.46993,3.9463 13.96998,6.30651 2.85629,1.93101 5.08072,4.17632 6.54888,6.64881 2.24201,3.76893 2.72985,8.0602 1.05123,12.56356 -4.74829,12.73912 -21.10257,14.54245 -48.54932,9.15654 l -16.18216,-4.05242 a 29.116566,29.116566 0 0 1 -11.96069,-6.20178 c -31.61175,4.70666 -52.31462,3.077 -62.9544,-6.14739 -0.98196,-0.85143 -5.23765,-4.44789 -4.82334,-4.09742 -2.22274,-1.89055 -4.00715,-3.45262 -5.83003,-5.13217 a 131.38669,131.38669 0 0 1 -13.67455,-14.55525 c -5.52466,-6.85223 -10.74608,-14.68867 -15.73293,-23.82691 a 7.492683,7.492683 0 0 1 13.15196,-7.17819 c 4.5603,8.35879 9.28731,15.44803 14.24984,21.60051 a 116.55368,116.55368 0 0 0 12.14248,12.9284 185.93342,185.93342 0 0 0 5.39691,4.74697 c 0.38494,0.32776 0.77568,0.65956 1.27852,1.08065 l 1.2483,1.05301 c 1.01365,0.85853 1.72149,1.46411 2.4095,2.05797 6.51776,5.65254 25.01173,6.8221 54.5414,2.08693 a 7.487688,7.487688 0 0 1 6.87107,2.52157 14.148683,14.148683 0 0 0 7.33174,4.53008 l 15.61056,3.91736 c 11.16536,2.18029 19.7196,2.91385 25.4762,2.27921 2.41316,-0.26573 4.14794,-0.75421 5.20056,-1.34306 0.45173,-0.25718 0.6313,-0.41818 0.7161,-0.57008 -0.26833,-0.37114 -0.87156,-0.94445 -1.90752,-1.6418 -2.11617,-1.43003 -5.28678,-2.85672 -9.47029,-4.23162 a 119.24355,119.24355 0 0 0 -10.83568,-2.92823 l 3.89202,-14.45978 c 4.07502,1.27737 7.6913,2.23999 10.82961,2.89381 4.07594,0.85114 7.3406,1.18595 9.73666,1.02467 a 9.470751,9.470751 0 0 0 1.8952,-0.28345 c -0.63467,-1.29816 -5.9862,-3.61595 -16.86201,-4.03906 -9.0627,-0.35226 -9.82333,-13.4971 -0.85791,-14.89028 1.94555,-0.29994 2.46545,-0.77456 2.68172,-1.61917 a 3.094478,3.094478 0 0 0 0.0641,-1.13226 c -1.12928,-0.62257 -3.43444,-0.83745 -8.82219,-0.67109 l -1.68958,0.0544 -1.79635,0.053 c -1.13184,0.0246 -3.90525,0.31833 -6.91972,0.82704 a 81.165737,81.165737 0 0 0 -13.22276,3.35358 c -4.84209,1.69323 -7.76182,3.37212 -9.65408,5.41257 a 7.490185,7.490185 0 0 1 -7.9947,1.96508 C 607.24798,639.5131 595.0798,636.622 586.2771,636.23405 a 7.492683,7.492683 0 0 1 -6.77552,-5.11509 c -0.55938,-1.67663 -1.11139,-3.35456 -1.80021,-5.47754 l -1.65891,-5.12204 c -2.2585,-6.92599 -3.74855,-11.11917 -5.53447,-15.33625 -3.54117,-8.36097 -7.91166,-15.65763 -14.57201,-23.85916 a 7.4928308,7.4928308 0 1 1 11.6369,-9.44206 c 7.54897,9.3002 12.64818,17.80996 16.73317,27.45721 1.9913,4.70584 3.60399,9.23498 5.98513,16.54005 a 8031.6866,8031.6866 0 0 0 1.88466,5.81263 c 8.68412,1.00991 19.08118,3.57928 31.26539,7.69756 3.18097,-2.36913 7.0452,-4.25767 11.87499,-5.94874 9.08866,-3.18256 19.19145,-4.88534 24.72938,-5.01984 0.50537,-0.0105 1.02752,-0.0265 1.68842,-0.0466 l 1.69942,-0.0562 c 10.50539,-0.32566 15.42584,0.46787 20.38578,5.42631 3.91869,3.91457 4.98401,9.84123 3.37167,15.23829 10.57609,3.13886 16.76434,9.38207 15.4056,19.05084 -0.6165,4.35665 -2.76184,7.65144 -6.0157,9.82292 z"
     fill="#524f75"
     id="path24" />
  <path
     d="m 543.01855,558.36174 a 7.572605,7.550127 39.993 1 1 11.60309,9.73373 7.572605,7.550127 39.993 1 1 -11.60309,-9.73373 z"
     fill="#524f75"
     id="path25" />
  <path
     d="m 588.69716,636.22324 c -6.76818,-0.65793 -12.37173,-0.95313 -16.77666,-0.89414 a 7.4930502,7.4930502 0 0 1 -0.20755,-14.98466 c 5.01953,-0.0685 11.15304,0.25503 18.43207,0.96237 a 7.4932678,7.4932678 0 0 1 -1.44786,14.91643 z"
     fill="#524f75"
     id="path26" />
  <path
     d="m 695.03176,311.94287 c 14.71064,-36.40945 -3.22185,-69.28734 -36.31453,-95.55669 -22.72781,25.98962 -30.58513,51.80941 -33.98431,92.91926"
     fill="#dea882"
     id="path27" />
  <path
     d="m 632.20312,309.92234 a 7.4932476,7.4932476 0 1 1 -14.93541,-1.23629 c 3.71387,-44.88117 12.94485,-71.08558 35.80503,-97.23754 a 7.492683,7.492683 0 0 1 10.29994,-0.93409 c 38.48242,30.55017 53.7625,66.72234 38.6073,104.23571 a 7.4927323,7.4927323 0 0 1 -13.89393,-5.61452 c 11.57869,-28.65951 1.1239,-56.63719 -28.39727,-82.21721 -17.11329,21.66634 -24.29627,44.40663 -27.48566,83.00394 z"
     fill="#524f75"
     id="path28" />
  <path
     d="m 673.52527,301.31575 c 10.07016,-24.92566 7.19297,-39.92102 -14.16867,-60.84808 -15.5573,17.79262 -20.75473,40.29565 -19.93553,53.32292 0.8192,13.02978 13.28703,25.37772 17.99493,25.69491 3.14193,0.2098 8.51418,-5.84679 16.10927,-18.16975 z"
     fill="#ffddc5"
     id="path29" />
  <path
     d="m 651.52925,220.2599 c -3.50658,-9.04367 -5.32231,-16.09678 -5.37725,-21.43656 -0.05,-5.17994 1.24378,-11.9808 3.84125,-20.60488 a 6.2459965,6.2459965 0 1 1 11.96082,3.60398 c -2.26529,7.51766 -3.35173,13.2071 -3.31177,16.87602 0.0375,3.50907 1.52351,9.28843 4.53557,17.05085 a 6.2454551,6.2454551 0 0 1 -11.64613,4.51559 z"
     fill="#524f75"
     id="path30" />
  <path
     d="m 652.91539,225.84445 c -6.74591,-2.22283 -11.72605,-4.23337 -15.06029,-6.13151 -3.32176,-1.89066 -7.72745,-5.21491 -13.38193,-10.05019 a 6.2443523,6.2443523 0 0 1 8.11457,-9.49323 c 5.09753,4.36074 8.96625,7.2779 11.44383,8.68902 2.4601,1.39863 6.7609,3.13693 12.78751,5.12 a 6.2464,6.2464 0 0 1 -3.90369,11.86341 z"
     fill="#524f75"
     id="path31" />
  <path
     d="m 655.76511,218.36176 c 2.19286,-7.01315 4.89522,-12.45284 8.24695,-16.33405 3.32175,-3.84375 8.03215,-7.23044 14.11371,-10.25998 a 6.244836,6.244836 0 0 1 5.56956,11.17908 c -4.7104,2.34771 -8.11207,4.78782 -10.23001,7.24293 -2.08046,2.41264 -4.05354,6.38376 -5.77935,11.90088 a 6.2464,6.2464 0 0 1 -11.92086,-3.72886 z"
     fill="#524f75"
     id="path32" />
  <path
     d="m 503.03926,355.17065 c 2.20534,-43.56995 42.2837,-64.59941 71.65003,-76.14813 29.36632,-11.54873 67.72885,-13.29952 107.51001,0 39.78115,13.29701 73.78794,35.7301 73.78794,82.00491 0,10.88937 -2.08796,21.29671 -5.88925,30.84238 12.33046,14.57327 19.7607,33.3874 19.7607,53.92734 0,46.27231 -37.70318,83.78318 -84.21026,83.78318 H 574.68929 c -46.50958,0 -105.83415,-33.54724 -105.71677,-88.30876 0.0649,-29.70349 25.06053,-51.9193 36.59677,-66.2553 -2.07298,-5.56956 -2.91466,-12.1856 -2.53003,-19.84562 z"
     fill="#dea882"
     id="path33" />
  <path
     d="m 763.47992,361.02743 c 0,-44.88866 -28.12004,-72.13455 -78.90544,-89.11047 -39.55388,-13.22209 -79.89698,-12.74006 -112.63001,0.13237 -19.59587,7.70747 -35.31801,16.19418 -48.18545,27.38575 -17.07832,14.853 -27.08355,33.15263 -28.20495,55.35844 -0.34467,6.80086 0.18731,12.97733 1.6334,18.51942 -3.82876,4.43816 -10.49225,12.03574 -12.85245,14.91543 -14.82052,18.06236 -22.81522,34.304 -22.85518,53.02322 -0.0599,28.19247 14.20613,52.86088 38.41748,70.73592 21.47403,15.85452 49.38428,25.08301 74.79197,25.08301 h 110.95914 c 50.63805,0 91.70294,-40.85511 91.70294,-91.27587 a 90.631493,90.631493 0 0 0 -18.75168,-55.31348 90.801327,90.801327 0 0 0 4.88023,-29.45374 z M 577.43161,285.99571 c 29.3863,-11.55622 66.11044,-11.99829 102.395,0.13237 45.34572,15.16019 68.66794,37.75563 68.66794,74.89935 0,9.74049 -1.83321,19.21624 -5.35726,28.07009 a 7.490185,7.490185 0 0 0 1.24128,7.61007 75.69358,75.69358 0 0 1 17.98744,49.08706 c 0,42.12636 -34.33897,76.2905 -76.71758,76.2905 H 574.68929 c -22.19583,0 -46.99161,-8.19699 -65.89066,-22.15337 -20.60238,-15.21014 -32.38088,-35.58025 -32.33092,-58.64772 0.0325,-14.52082 6.62103,-27.91024 19.456,-43.54997 2.8597,-3.4841 13.43188,-15.4674 15.48737,-18.0224 a 7.49518,7.49518 0 0 0 1.18384,-7.31536 c -1.69334,-4.54056 -2.40764,-10.14509 -2.07047,-16.84605 1.64089,-32.52573 25.4951,-53.27048 66.90716,-69.55457 z"
     fill="#524f75"
     id="path34" />
  <path
     d="m 700.6695,376.14442 a 30.887338,27.463181 49.998 1 1 42.0748,-35.30746 30.887338,27.463181 49.998 1 1 -42.0748,35.30746 z"
     fill="#ffffff"
     id="path35" />
  <path
     d="m 721.70821,396.87243 c 19.51345,0 34.95587,-17.36804 34.95587,-38.38252 0,-21.01198 -15.44242,-38.37752 -34.95587,-38.37752 -19.51344,0 -34.95586,17.36804 -34.95586,38.38002 0.003,21.01198 15.44242,38.38002 34.95586,38.38002 z m 0,-14.98537 c -10.81943,0 -19.9705,-10.28995 -19.97049,-23.39465 0.002,-13.1047 9.15106,-23.39465 19.97049,-23.39465 10.81944,0 19.9705,10.28995 19.9705,23.39215 0,13.1047 -9.15106,23.39715 -19.9705,23.39715 z"
     fill="#524f75"
     id="path36" />
  <path
     d="m 718.48386,371.82938 c -1.5335,2.01803 -3.79879,3.29179 -6.32632,3.29179 -4.61799,0 -8.35934,-4.25584 -8.35934,-9.50322 0,-5.24737 3.74135,-9.50322 8.35934,-9.50322 4.56055,0 8.26693,4.15095 8.35684,9.31091 l -6.19645,1.024 z"
     fill="#232323"
     id="path37" />
  <path
     d="m 623.16205,383.25543 a 39.656273,36.53682 49.998 1 1 55.97601,-46.97278 39.656273,36.53682 49.998 1 1 -55.97601,46.97278 z"
     fill="#ffffff"
     id="path38" />
  <path
     d="m 651.15461,406.91512 c 24.45862,0 44.02701,-21.23926 44.02701,-47.14895 0,-25.9072 -19.56839,-47.14646 -44.02701,-47.14646 -24.45861,0 -44.0295,21.23926 -44.0295,47.14646 0,25.90969 19.56839,47.14895 44.0295,47.14895 z m 0,-14.98536 c -15.89697,0 -29.04413,-14.26857 -29.04413,-32.16359 0,-17.89253 13.14466,-32.1611 29.04413,-32.1611 15.89448,0 29.04164,14.26857 29.04164,32.1611 0,17.89502 -13.14716,32.16359 -29.04164,32.16359 z"
     fill="#524f75"
     id="path39" />
  <path
     d="m 649.57116,373.19305 c -2.03052,2.56999 -5.03259,4.1984 -8.37932,4.1984 -6.11653,0 -11.07418,-5.4247 -11.07418,-12.11567 0,-6.69346 4.95766,-12.11816 11.07418,-12.11816 6.0391,0 10.95181,5.29233 11.07169,11.87091 l -8.20948,1.30372 z"
     fill="#232323"
     id="path40" />
  <path
     d="m 588.65065,314.72265 c 0,-39.26915 -28.94174,-63.03344 -69.47215,-74.99426 -11.33144,32.61065 -8.94377,59.4944 3.30177,98.88343"
     fill="#dea882"
     id="path41" />
  <path
     d="m 529.63329,336.3865 a 7.4919959,7.4919959 0 1 1 -14.30853,4.44815 c -13.37194,-43.0055 -14.62572,-70.7559 -3.22435,-103.56886 a 7.492683,7.492683 0 0 1 9.19851,-4.72788 c 47.12398,13.91142 74.84441,41.72675 74.84441,82.18474 a 7.492683,7.492683 0 1 1 -14.98536,0 c 0,-30.90981 -20.1728,-52.9333 -57.12921,-65.59094 -7.74993,26.49912 -5.89175,50.2709 5.60453,87.25479 z"
     fill="#524f75"
     id="path42" />
  <path
     d="m 564.72901,312.92691 c 0,-26.88375 -8.2869,-39.70623 -35.9349,-51.10759 -7.75493,22.32819 -4.14346,45.13592 1.49603,56.90942 5.6395,11.7735 21.82119,18.55188 26.30931,17.07832 2.98958,-0.98154 5.69944,-8.60909 8.12956,-22.87765 z"
     fill="#ffddc5"
     id="path43" />
  <path
     d="m 513.97108,246.01475 c -6.63852,-7.07309 -10.96679,-12.93237 -13.01729,-17.86256 -1.99055,-4.78282 -3.33424,-11.57619 -4.15844,-20.54243 a 6.2464,6.2464 0 0 1 12.43786,-1.14139 c 0.7168,7.81737 1.8407,13.49682 3.25182,16.88601 1.34869,3.23934 4.89272,8.04215 10.59466,14.11122 a 6.248898,6.248898 0 0 1 -9.10861,8.54915 z"
     fill="#524f75"
     id="path44" />
  <path
     d="m 517.34529,250.6702 c -7.08808,0.46955 -12.45784,0.46955 -16.26412,-0.0425 -3.7863,-0.50951 -9.1161,-1.94311 -16.17171,-4.3058 a 6.2453364,6.2453364 0 1 1 3.96863,-11.84343 c 6.36378,2.13291 11.04421,3.38919 13.86645,3.77131 2.80477,0.37464 7.44773,0.37464 13.77655,-0.045 a 6.2462724,6.2462724 0 0 1 0.8242,12.46532 z"
     fill="#524f75"
     id="path45" />
  <path
     d="m 517.18544,242.66552 c -0.59192,-7.32534 -0.12488,-13.37943 1.53101,-18.23219 1.6334,-4.80781 4.73537,-9.71302 9.24347,-14.80305 a 6.243902,6.243902 0 1 1 9.34587,8.27942 c -3.48659,3.93865 -5.7269,7.48019 -6.77088,10.5472 -1.029,3.01455 -1.37117,7.43774 -0.90162,13.19961 a 6.2464,6.2464 0 0 1 -12.44785,1.00901 z"
     fill="#524f75"
     id="path46" />
  <path
     d="m 709.08304,427.20281 c -26.90373,-23.51703 -68.82529,-19.94053 -99.24058,-17.41549 -31.20953,2.59246 -57.08675,25.43016 -57.08675,56.79703 v 6.19645 c 0,16.27161 6.87828,30.94478 17.89752,41.29967 6.99567,9.40331 19.1413,14.66318 36.7566,16.90849 11.74603,1.49104 32.35341,2.1479 61.82463,1.96807 6.65849,7.59509 23.32722,11.25401 34.25155,11.25401 10.92683,0 24.24632,-7.03812 30.90482,-14.63071 22.39063,-18.944 36.4469,-33.9918 42.16882,-45.14591 5.72191,-11.15411 8.66154,-20.83965 8.81888,-29.06412 0,-19.71824 -8.94126,-45.58049 -27.22841,-45.58049 -12.18809,-0.005 -28.54462,5.80184 -49.06708,17.413 z"
     fill="#ffddc5"
     id="path47" />
  <path
     d="m 704.15286,432.8423 a 7.492683,7.492683 0 0 0 8.62158,0.88164 C 732.2704,422.69221 747.523,417.28 758.15012,417.28 c 10.68707,0 19.73573,17.87255 19.73573,37.94544 -0.13237,6.93823 -2.75231,15.5698 -7.99469,25.78732 -5.14997,10.0402 -18.65179,24.49608 -40.34061,42.84566 -0.28222,0.23977 -0.54946,0.49951 -0.79422,0.77924 -5.67945,6.47867 -17.11329,12.0782 -25.27032,12.0782 -11.0642,0 -24.41866,-3.90868 -28.61955,-8.699 a 7.497678,7.497678 0 0 0 -5.67946,-2.55251 c -29.15902,0.17733 -49.50915,-0.47204 -60.83309,-1.91313 -16.15922,-2.05299 -26.24937,-6.62853 -31.69155,-13.94388 a 7.517659,7.517659 0 0 0 -0.88164,-0.98904 c -9.85538,-9.26095 -15.53483,-22.09093 -15.53483,-35.84 v -6.19395 c 0,-26.25686 21.56144,-46.95414 50.21346,-49.33182 l 3.44664,-0.28472 c 17.37803,-1.42361 28.0551,-1.87817 39.45147,-1.28125 21.69382,1.13888 38.49491,6.40374 50.7954,17.15824 z m -50.00617,-32.11863 c -12.24554,-0.64437 -23.45709,-0.16984 -41.46451,1.30872 l -3.45912,0.28722 c -36.04979,2.99208 -63.96004,29.78341 -63.96004,64.26474 v 6.19645 c 0,17.7102 7.23793,34.28402 19.78568,46.31227 8.31688,10.78447 21.9136,16.84355 41.41456,19.32363 11.74852,1.49854 31.60913,2.16539 59.77912,2.048 8.53916,7.168 23.81674,11.23903 37.24363,11.23903 12.45533,0 27.6405,-7.34783 36.1472,-16.74865 22.86017,-19.38107 37.33604,-34.9109 43.59243,-47.104 6.19894,-12.0857 9.46076,-22.8327 9.64308,-32.48328 0,-27.42072 -12.98732,-53.07317 -34.72109,-53.07317 -12.78502,0 -28.7769,5.35727 -48.27786,15.90947 -14.62322,-11.00675 -33.16261,-16.29909 -55.72308,-17.48293 z"
     fill="#524f75"
     id="path48" />
  <path
     d="m 728.02954,395.76351 c -5.41471,0.0425 -11.66361,1.19134 -18.74669,3.44164 -7.36781,2.2578 -13.58424,7.03813 -13.58424,15.85452 0,0.63438 0.04,1.26876 0.11489,1.90064 1.2288,10.19255 9.91782,17.86256 20.23524,17.86256 h 18.10732 c 11.0592,0 20.7822,-7.28539 23.83422,-17.86256 2.14541,-7.43024 -2.17538,-15.17768 -9.63809,-17.31809 -2.06548,-0.59192 -9.79044,-3.96363 -20.32265,-3.87871 z"
     fill="#8b674f"
     id="path49" />
  <path
     d="m 728.08948,403.25619 c 4.31828,-0.0375 8.38431,0.59193 12.36043,1.70334 1.71832,0.47953 5.71692,1.8482 5.8368,1.88316 3.49159,1.00152 5.49713,4.60051 4.5031,8.03715 -2.12542,7.36281 -8.9088,12.44785 -16.63625,12.44785 h -18.10732 c -6.53362,0 -12.02076,-4.84527 -12.7975,-11.264 -0.04,-0.33468 -0.0599,-0.67185 -0.0599,-1.00652 0,-4.22088 2.61994,-6.95321 8.36183,-8.71399 6.41624,-2.03801 11.94084,-3.05202 16.53885,-3.08948 z m -0.11988,-14.98536 c -6.23142,0.05 -13.20461,1.3287 -20.88461,3.77132 -11.37639,3.48659 -18.88156,11.30646 -18.88156,23.01752 0,0.93409 0.0549,1.86817 0.16734,2.79727 1.68335,13.96136 13.57424,24.45611 27.67547,24.45611 h 18.10732 c 14.39095,0 27.05358,-9.48823 31.03219,-23.27726 3.29928,-11.41386 -3.32924,-23.31723 -14.77057,-26.59653 a 111.21639,111.21639 0 0 0 -5.92921,-1.91064 c -5.24488,-1.46606 -10.67707,-2.30524 -16.51637,-2.25779 z"
     fill="#524f75"
     id="path50" />
  <path
     d="m 737.64765,459.35641 -28.82186,4.23586 v 21.0994 a 10.657093,10.657093 0 0 0 11.46381,10.62712 l 1.25377,-0.0949 a 14.985366,14.985366 0 0 0 13.22709,-10.65709 c 0.72429,-2.42763 1.17385,-4.01358 1.35118,-4.76285 0.35715,-1.50603 0.86415,-8.32187 1.52601,-20.44753 z"
     fill="#ffffff"
     id="path51" />
  <path
     d="m 730.04757,478.37284 c -0.13737,0.58693 -0.56945,2.10294 -1.25627,4.40819 a 8.743961,8.743961 0 0 1 -7.71747,6.21893 l -1.25377,0.0924 a 4.41319,4.41319 0 0 1 -4.74787,-4.4007 v -15.70716 l 15.90197,-2.33772 c -0.42458,6.87329 -0.75926,11.01424 -0.92409,11.72605 z m -27.46318,-20.1753 v 26.49413 a 16.900995,16.900995 0 0 0 18.17725,16.85354 l 1.25627,-0.0949 a 21.229268,21.229268 0 0 0 18.7417,-15.09775 c 0.75926,-2.54752 1.2313,-4.20839 1.44858,-5.12 0.48203,-2.06299 0.97655,-8.69651 1.67587,-21.53647 l 0.41709,-7.63005 z"
     fill="#524f75"
     id="path52" />
  <path
     d="m 713.4313,459.35641 -34.65866,1.07895 2.37268,27.28585 a 14.171161,14.171161 0 0 0 14.11622,12.94486 14.723122,14.723122 0 0 0 14.61073,-12.89241 z"
     fill="#ffffff"
     id="path53" />
  <path
     d="m 703.67332,486.99192 a 8.47922,8.47922 0 0 1 -8.41428,7.42525 7.927259,7.927259 0 0 1 -7.89729,-7.24043 l -1.79824,-20.70977 20.76222,-0.64687 z m -31.69404,-32.59317 2.94212,33.85944 a 20.415063,20.415063 0 0 0 20.34014,18.64679 20.969522,20.969522 0 0 0 20.80468,-18.35708 l 4.47064,-35.66267 -48.55758,1.51102 z"
     fill="#524f75"
     id="path54" />
  <path
     d="m 675.37096,467.5634 c -11.32893,-3.31677 -17.80011,-8.31688 -29.67851,-20.80968 l -1.19134,-1.25378 a 7.492683,7.492683 0 0 1 10.86439,-10.31992 l 1.18634,1.24878 c 10.17506,10.69955 14.94541,14.38845 23.03001,16.75364 8.96125,2.62244 21.32418,2.58248 39.60632,-0.62439 l 1.93811,-0.33967 1.85569,0.65686 c 11.65362,4.12347 17.98244,1.30622 21.2992,-7.21296 a 7.492683,7.492683 0 1 1 13.96386,5.43719 c -6.06907,15.59228 -20.0654,22.25327 -38.34505,16.54135 -19.37358,3.24683 -33.36742,3.18938 -44.52902,-0.0749 z"
     fill="#524f75"
     id="path55" />
  <path
     d="m 714.84492,451.70388 c 0.82919,-2.23781 0.82919,-4.81779 -0.13737,-7.96722 a 7.4938033,7.4938033 0 0 1 14.32851,-4.3957 c 1.89065,6.16398 1.89065,12.09568 -0.13737,17.56784 -2.90966,7.85733 -5.16995,10.9543 -11.80347,12.27801 a 7.492683,7.492683 0 0 1 -3.38919,-14.58576 c 0.22478,-0.49701 0.57444,-1.36866 1.13889,-2.89717 z"
     fill="#524f75"
     id="path56" />
  <path
     d="m 557.64343,487.81362 c -4.6055,-3.86123 -8.02466,-6.46618 -10.1376,-11.99828 -2.81475,-7.38779 -4.80281,-13.38443 -4.89522,-18.99146 -0.15984,-9.80542 18.65678,11.03922 33.68711,6.13651"
     fill="#ffddc5"
     id="path57" />
  <path
     d="m 560.70794,469.16683 c 6.39126,1.89065 12.28051,2.1504 17.82509,0.12488 a 7.4938414,7.4938414 0 0 0 -5.13998,-14.07875 c -2.08546,0.76175 -4.85276,0.63937 -8.43176,-0.41959 -2.3577,-0.69932 -4.76785,-1.68586 -8.18451,-3.28679 -0.57194,-0.26724 -2.64991,-1.24878 -2.44761,-1.15887 -0.99403,-0.46954 -1.71333,-0.79922 -2.40515,-1.11142 -1.99805,-0.88913 -3.54654,-1.46856 -5.07754,-1.81822 -6.83333,-1.56347 -12.63516,2.69736 -12.24305,10.25998 0.3122,6.08406 2.07797,11.71855 6.13401,21.33666 2.14291,5.08254 4.95766,8.36184 9.77296,12.22806 0.45455,0.36215 0.9216,0.73179 1.531,1.20882 0.16984,0.13237 1.22381,0.95157 1.536,1.19883 a 7.487688,7.487688 0 0 0 10.51473,-1.29873 7.487688,7.487688 0 0 0 -1.29373,-10.51473 l -1.54349,-1.19883 c -0.56196,-0.43708 -0.97655,-0.76675 -1.36367,-1.07895 -3.04703,-2.44511 -4.32078,-3.93116 -5.34978,-6.36628 a 133.20741,133.20741 0 0 1 -2.98209,-7.59009 c 3.4816,1.60343 6.22143,2.69737 9.14857,3.56152 z"
     fill="#524f75"
     id="path58" />
  <path
     d="m 566.44983,463.03282 c -15.61475,-15.0553 -22.16835,-28.41225 -25.40019,-39.7262 -3.22935,-11.31146 18.64679,11.86591 34.54127,1.52351"
     fill="#ffddc5"
     id="path59" />
  <path
     d="m 565.95781,435.06513 c 4.93019,0.01 9.56566,-1.24129 13.7216,-3.94615 a 7.4930335,7.4930335 0 0 0 -8.17451,-12.56023 c -1.60344,1.04398 -3.3842,1.52601 -5.51462,1.52351 -3.16191,-0.007 -6.79586,-1.04148 -11.55621,-3.10696 -1.12391,-0.48952 -4.77284,-2.1529 -4.82779,-2.17788 -2.09046,-0.93658 -3.48659,-1.47855 -4.92519,-1.82321 -8.24944,-1.98557 -13.04476,4.67543 -10.83692,12.40288 4.26834,14.93542 12.61518,28.79938 27.40574,43.06045 a 7.4927851,7.4927851 0 1 0 10.40234,-10.78696 c -8.98622,-8.66404 -15.09026,-16.90849 -19.16378,-25.3003 4.76035,1.76578 9.02119,2.70736 13.46934,2.71485 z"
     fill="#524f75"
     id="path60" />
  <path
     d="m 497.14751,373.18057 c 8.50919,-8.56414 16.85104,-13.71911 25.20788,-15.20266 a 7.49518,7.49518 0 0 1 2.61994,14.75559 c -4.88023,0.86666 -10.67207,4.44816 -17.1982,11.01175 a 7.4933525,7.4933525 0 0 1 -10.62962,-10.56468 z"
     fill="#524f75"
     id="path61" />
</svg>
