<?xml version="1.0" encoding="UTF-8"?>
<!DOCTYPE svg PUBLIC "-//W3C//DTD SVG 1.1//EN" "http://www.w3.org/Graphics/SVG/1.1/DTD/svg11.dtd">
<svg xmlns="http://www.w3.org/2000/svg" version="1.1" width="151px" height="51px" style="shape-rendering:geometricPrecision; text-rendering:geometricPrecision; image-rendering:optimizeQuality; fill-rule:evenodd; clip-rule:evenodd" xmlns:xlink="http://www.w3.org/1999/xlink">
<g><path style="opacity:0.425" fill="#faeeaf" d="M 121.5,3.5 C 118.15,3.38646 114.817,3.05313 111.5,2.5C 108.95,2.61744 106.95,3.61744 105.5,5.5C 105.539,4.41683 105.873,3.41683 106.5,2.5C 111.724,1.19244 116.724,1.52578 121.5,3.5 Z"/></g>
<g><path style="opacity:1" fill="#fbd53b" d="M 58.5,1.5 C 59.5,2.83333 60.5,4.16667 61.5,5.5C 61.5,5.83333 61.5,6.16667 61.5,6.5C 61.5,7.16667 61.8333,7.5 62.5,7.5C 63.6985,10.63 66.0318,12.63 69.5,13.5C 69.5,14.1667 69.8333,14.5 70.5,14.5C 70.5106,16.0174 71.1772,17.1841 72.5,18C 79.1667,18.6667 85.8333,18.6667 92.5,18C 94.0581,17.79 95.3915,17.29 96.5,16.5C 102.231,15.6744 105.231,12.341 105.5,6.5C 105.5,6.16667 105.5,5.83333 105.5,5.5C 106.95,3.61744 108.95,2.61744 111.5,2.5C 114.817,3.05313 118.15,3.38646 121.5,3.5C 124.418,5.6258 127.751,7.29247 131.5,8.5C 131.973,9.90632 132.973,10.573 134.5,10.5C 137.05,12.0772 139.05,14.0772 140.5,16.5C 141.757,19.4274 143.757,21.7607 146.5,23.5C 146.427,25.0269 147.094,26.0269 148.5,26.5C 148.963,29.4824 149.296,32.4824 149.5,35.5C 147.088,35.6941 146.088,37.0274 146.5,39.5C 141.827,40.5028 137.161,41.5028 132.5,42.5C 129.904,41.7347 127.237,41.4013 124.5,41.5C 126.144,36.312 125.81,31.312 123.5,26.5C 123.201,23.3579 121.534,21.1912 118.5,20C 114.311,19.1881 110.311,19.3547 106.5,20.5C 101.057,22.275 97.7238,25.9417 96.5,31.5C 92.8274,29.6823 88.8274,29.0157 84.5,29.5C 81.1032,26.6076 77.1032,25.7742 72.5,27C 71.6195,27.7083 70.9528,28.5416 70.5,29.5C 62.3351,31.3141 55.6684,29.1475 50.5,23C 49.552,22.5172 48.552,22.3505 47.5,22.5C 32.1891,17.1682 24.1891,22.5015 23.5,38.5C 19.066,40.2373 14.3993,40.9039 9.5,40.5C 8.83333,40.5 8.16667,40.5 7.5,40.5C 4.01597,38.489 2.68264,35.3223 3.5,31C 3.66667,28.8333 3.83333,26.6667 4,24.5C 5.48131,23.5291 6.31465,22.1958 6.5,20.5C 8.5,19.1667 10.1667,17.5 11.5,15.5C 15.7041,10.7312 21.0374,8.06456 27.5,7.5C 35.1914,7.62752 42.8581,7.79418 50.5,8C 52.7705,5.21788 55.4372,3.05121 58.5,1.5 Z"/></g>
<g><path style="opacity:1" fill="#2a292a" d="M 69.5,13.5 C 66.0318,12.63 63.6985,10.63 62.5,7.5C 61.8333,7.5 61.5,7.16667 61.5,6.5C 61.5,6.16667 61.5,5.83333 61.5,5.5C 61.5,4.5 61.5,3.5 61.5,2.5C 68.124,3.12388 71.7907,6.79054 72.5,13.5C 71.5,13.5 70.5,13.5 69.5,13.5 Z"/></g>
<g><path style="opacity:0.894" fill="#fff2a9" d="M 121.5,3.5 C 125.42,4.12663 128.753,5.7933 131.5,8.5C 127.751,7.29247 124.418,5.6258 121.5,3.5 Z"/></g>
<g><path style="opacity:1" fill="#fbef9b" d="M 56.5,-0.5 C 56.8333,-0.5 57.1667,-0.5 57.5,-0.5C 57.8333,0.166667 58.1667,0.833333 58.5,1.5C 55.4372,3.05121 52.7705,5.21788 50.5,8C 42.8581,7.79418 35.1914,7.62752 27.5,7.5C 30.2281,6.79476 33.0614,6.12809 36,5.5C 40.4325,6.58509 44.9325,7.08509 49.5,7C 52.0386,4.63029 54.3719,2.13029 56.5,-0.5 Z"/></g>
<g><path style="opacity:1" fill="#22201d" d="M 105.5,6.5 C 105.231,12.341 102.231,15.6744 96.5,16.5C 96.5,16.1667 96.5,15.8333 96.5,15.5C 97.4866,12.8544 98.4866,10.1878 99.5,7.5C 101.281,5.45371 103.281,5.12037 105.5,6.5 Z"/></g>
<g><path style="opacity:0.298" fill="#fbf8ca" d="M 131.5,8.5 C 133.027,8.42702 134.027,9.09368 134.5,10.5C 132.973,10.573 131.973,9.90632 131.5,8.5 Z"/></g>
<g><path style="opacity:0.776" fill="#fcf1b8" d="M 11.5,15.5 C 10.1667,17.5 8.5,19.1667 6.5,20.5C 7.16667,17.8333 8.83333,16.1667 11.5,15.5 Z"/></g>
<g><path style="opacity:0.845" fill="#fae98f" d="M 70.5,14.5 C 79.0466,17.9344 87.7133,18.2677 96.5,15.5C 96.5,15.8333 96.5,16.1667 96.5,16.5C 95.3915,17.29 94.0581,17.79 92.5,18C 85.8333,18.6667 79.1667,18.6667 72.5,18C 71.1772,17.1841 70.5106,16.0174 70.5,14.5 Z"/></g>
<g><path style="opacity:1" fill="#fdf0b0" d="M 140.5,16.5 C 143.243,18.2393 145.243,20.5726 146.5,23.5C 143.757,21.7607 141.757,19.4274 140.5,16.5 Z"/></g>
<g><path style="opacity:1" fill="#fbfae2" d="M 11.5,17.5 C 16.472,17.2417 17.6387,19.2417 15,23.5C 12.0599,26.4836 9.89318,26.1502 8.5,22.5C 9.09238,20.5775 10.0924,18.9108 11.5,17.5 Z"/></g>
<g><path style="opacity:1" fill="#bfa02a" d="M 106.5,20.5 C 110.311,19.3547 114.311,19.1881 118.5,20C 121.534,21.1912 123.201,23.3579 123.5,26.5C 119.09,21.3607 113.423,19.3607 106.5,20.5 Z"/></g>
<g><path style="opacity:1" fill="#141413" d="M 47.5,22.5 C 51.957,27.251 53.6237,32.9176 52.5,39.5C 52.5,39.8333 52.5,40.1667 52.5,40.5C 50.0567,45.2811 46.39,48.6144 41.5,50.5C 39.1667,50.5 36.8333,50.5 34.5,50.5C 29.1988,48.5322 25.5321,44.8655 23.5,39.5C 23.5,39.1667 23.5,38.8333 23.5,38.5C 24.1891,22.5015 32.1891,17.1682 47.5,22.5 Z"/></g>
<g><path style="opacity:1" fill="#141413" d="M 106.5,20.5 C 113.423,19.3607 119.09,21.3607 123.5,26.5C 125.81,31.312 126.144,36.312 124.5,41.5C 122.407,45.9283 119.074,48.9283 114.5,50.5C 112.167,50.5 109.833,50.5 107.5,50.5C 102.96,48.6324 99.2935,45.6324 96.5,41.5C 96.5,41.1667 96.5,40.8333 96.5,40.5C 96.5,39.5 96.5,38.5 96.5,37.5C 96.5,35.5 96.5,33.5 96.5,31.5C 97.7238,25.9417 101.057,22.275 106.5,20.5 Z"/></g>
<g><path style="opacity:0.463" fill="#f9edb6" d="M 146.5,23.5 C 147.906,23.9731 148.573,24.9731 148.5,26.5C 147.094,26.0269 146.427,25.0269 146.5,23.5 Z"/></g>
<g><path style="opacity:1" fill="#dfb32b" d="M 47.5,22.5 C 48.552,22.3505 49.552,22.5172 50.5,23C 55.6684,29.1475 62.3351,31.3141 70.5,29.5C 70.5,30.1667 70.1667,30.5 69.5,30.5C 54.8333,31.1667 54.8333,31.8333 69.5,32.5C 70.1667,32.5 70.5,32.8333 70.5,33.5C 67.1501,33.335 63.8168,33.5017 60.5,34C 64.9918,39.0687 63.6584,40.9021 56.5,39.5C 55.1667,39.5 53.8333,39.5 52.5,39.5C 53.6237,32.9176 51.957,27.251 47.5,22.5 Z"/></g>
<g><path style="opacity:1" fill="#dcdcdc" d="M 34.5,26.5 C 42.709,25.8724 46.209,29.5391 45,37.5C 40.8292,43.729 36.1626,44.0623 31,38.5C 29.5934,33.6427 30.76,29.6427 34.5,26.5 Z"/></g>
<g><path style="opacity:1" fill="#f8f5eb" d="M 84.5,29.5 C 84.5,30.8333 84.5,32.1667 84.5,33.5C 79.7532,38.726 75.0865,38.726 70.5,33.5C 70.5,32.8333 70.1667,32.5 69.5,32.5C 69.5,31.8333 69.5,31.1667 69.5,30.5C 70.1667,30.5 70.5,30.1667 70.5,29.5C 70.9528,28.5416 71.6195,27.7083 72.5,27C 77.1032,25.7742 81.1032,26.6076 84.5,29.5 Z"/></g>
<g><path style="opacity:1" fill="#dbdbdb" d="M 107.5,26.5 C 115.709,25.8724 119.209,29.5391 118,37.5C 113.829,43.729 109.163,44.0623 104,38.5C 102.593,33.6427 103.76,29.6427 107.5,26.5 Z"/></g>
<g><path style="opacity:1" fill="#414142" d="M 75.5,27.5 C 76.9778,27.238 78.3112,27.5713 79.5,28.5C 78.1667,30.1667 78.1667,31.8333 79.5,33.5C 78.5373,35.4896 77.204,35.8229 75.5,34.5C 76.0253,33.8076 76.6919,33.3076 77.5,33C 76.536,31.2745 75.8693,29.4412 75.5,27.5 Z"/></g>
<g><path style="opacity:1" fill="#dc9536" d="M 84.5,29.5 C 88.8274,29.0157 92.8274,29.6823 96.5,31.5C 96.5,33.5 96.5,35.5 96.5,37.5C 95.8333,35.8333 95.1667,34.1667 94.5,32.5C 91.3752,33.4794 88.0419,33.8128 84.5,33.5C 84.5,32.1667 84.5,30.8333 84.5,29.5 Z"/></g>
<g><path style="opacity:1" fill="#db0f1e" d="M 69.5,30.5 C 69.5,31.1667 69.5,31.8333 69.5,32.5C 54.8333,31.8333 54.8333,31.1667 69.5,30.5 Z"/></g>
<g><path style="opacity:1" fill="#da031e" d="M 94.5,32.5 C 91.4281,32.8174 88.4281,32.4841 85.5,31.5C 87,31.1667 88.5,30.8333 90,30.5C 91.9855,30.5687 93.4855,31.2353 94.5,32.5 Z"/></g>
<g><path style="opacity:0.306" fill="#f9f1af" d="M 148.5,26.5 C 149.167,27.5 149.833,28.5 150.5,29.5C 150.5,31.5 150.5,33.5 150.5,35.5C 150.167,35.5 149.833,35.5 149.5,35.5C 149.296,32.4824 148.963,29.4824 148.5,26.5 Z"/></g>
<g><path style="opacity:0.882" fill="#faeea9" d="M 6.5,20.5 C 6.31465,22.1958 5.48131,23.5291 4,24.5C 3.83333,26.6667 3.66667,28.8333 3.5,31C 2.68264,35.3223 4.01597,38.489 7.5,40.5C 3.75897,40.4133 1.75897,38.4133 1.5,34.5C 2.18154,31.5426 2.34821,28.5426 2,25.5C 2.9959,23.3395 4.4959,21.6728 6.5,20.5 Z"/></g>
<g><path style="opacity:1" fill="#fbd638" d="M 94.5,32.5 C 95.1667,34.1667 95.8333,35.8333 96.5,37.5C 96.5,38.5 96.5,39.5 96.5,40.5C 82.9959,42.0267 69.6626,41.6933 56.5,39.5C 63.6584,40.9021 64.9918,39.0687 60.5,34C 63.8168,33.5017 67.1501,33.335 70.5,33.5C 75.0865,38.726 79.7532,38.726 84.5,33.5C 88.0419,33.8128 91.3752,33.4794 94.5,32.5 Z"/></g>
<g><path style="opacity:0.804" fill="#f9eeb1" d="M 23.5,38.5 C 23.5,38.8333 23.5,39.1667 23.5,39.5C 22.735,40.6602 21.735,41.6602 20.5,42.5C 16.6973,41.8963 13.0306,41.2296 9.5,40.5C 14.3993,40.9039 19.066,40.2373 23.5,38.5 Z"/></g>
<g><path style="opacity:0.957" fill="#fdf0ad" d="M 146.5,39.5 C 142.13,42.4297 137.463,43.4297 132.5,42.5C 137.161,41.5028 141.827,40.5028 146.5,39.5 Z"/></g>
<g><path style="opacity:0.827" fill="#696969" d="M 150.5,39.5 C 150.5,40.1667 150.5,40.8333 150.5,41.5C 147.833,40.8333 147.833,40.1667 150.5,39.5 Z"/></g>
<g><path style="opacity:1" fill="#fae79b" d="M 52.5,40.5 C 52.5,40.1667 52.5,39.8333 52.5,39.5C 53.8333,39.5 55.1667,39.5 56.5,39.5C 69.6626,41.6933 82.9959,42.0267 96.5,40.5C 96.5,40.8333 96.5,41.1667 96.5,41.5C 81.6954,44.4602 67.0287,44.1268 52.5,40.5 Z"/></g>
</svg>
